/* XPM */
static char *_3dd9b27bf3c4ed789947299d6f2a0ae[] = {
/* columns rows colors chars-per-pixel */
"64 64 157 2 ",
"   c #1E1D1E",
".  c #201F1F",
"X  c #1F201F",
"o  c #20201F",
"O  c #1F1E20",
"+  c #201E20",
"@  c #252426",
"#  c #282626",
"$  c #292827",
"%  c #272528",
"&  c #29262A",
"*  c #2C2A2C",
"=  c #302E2E",
"-  c #31302E",
";  c #2F2C30",
":  c #312E32",
">  c #353234",
",  c #383436",
"<  c #3A3837",
"1  c #363338",
"2  c #393538",
"3  c #3B383A",
"4  c #3B393A",
"5  c #3B383B",
"6  c #3B393B",
"7  c #3A383A",
"8  c #3A3A3A",
"9  c gray23",
"0  c #3A3839",
"q  c #3C383A",
"w  c #3C393A",
"e  c #3C383B",
"r  c #3C393B",
"t  c #3C3A3B",
"y  c #3D3B3B",
"u  c #3C393C",
"i  c #3D393C",
"p  c #3C3A3C",
"a  c #3D3A3C",
"s  c #3C3B3C",
"d  c #3D3B3C",
"f  c #3D3A3D",
"g  c #3D3B3D",
"h  c #3E3B3C",
"j  c #3E3B3D",
"k  c #3E3B3E",
"l  c #3D3C3C",
"z  c #3D3C3D",
"x  c #3E3C3C",
"c  c #3E3C3D",
"v  c #3F3C3D",
"b  c #3E3D3D",
"n  c #3E3E3D",
"m  c #3F3E3D",
"M  c #3E3C3E",
"N  c #3F3C3E",
"B  c #3F3D3E",
"V  c #3F3E3E",
"C  c #3F3F3F",
"Z  c #3C3A3C",
"A  c #403D3F",
"S  c #403F3E",
"D  c #403E3F",
"F  c #403F3F",
"G  c #413F3F",
"H  c #403E3F",
"J  c #40403F",
"K  c #41403F",
"L  c #40403F",
"P  c #403E40",
"I  c #413E40",
"U  c #403F40",
"Y  c #413F40",
"T  c #413F41",
"R  c #423F40",
"E  c #413E42",
"W  c #413E40",
"Q  c gray25",
"!  c #414040",
"~  c #414140",
"^  c #414141",
"/  c #424040",
"(  c #424140",
")  c #424041",
"_  c #424141",
"`  c #434241",
"'  c #434042",
"]  c #424142",
"[  c #414242",
"{  c gray26",
"}  c #434243",
"|  c #434343",
" . c #444042",
".. c #444043",
"X. c #454043",
"o. c #444143",
"O. c #454143",
"+. c #444343",
"@. c #444144",
"#. c #454144",
"$. c #444344",
"%. c #444444",
"&. c #454444",
"*. c gray27",
"=. c #464545",
"-. c #454645",
";. c #464646",
":. c #474646",
">. c #464746",
",. c #474746",
"<. c #474647",
"1. c #464747",
"2. c gray28",
"3. c #444243",
"4. c #484747",
"5. c #484747",
"6. c #474847",
"7. c #494847",
"8. c #494748",
"9. c #484748",
"0. c #484848",
"q. c #494848",
"w. c #494949",
"e. c #4A4949",
"r. c #4B4949",
"t. c gray29",
"y. c #4B4A4A",
"u. c #4C4B4B",
"i. c #4C4B4C",
"p. c #4D4B4D",
"a. c #4C4C4C",
"s. c #4D4C4C",
"d. c #4D4C4D",
"f. c #4E4D4D",
"g. c #4E4D4E",
"h. c #4F4D4E",
"j. c #4E4E4E",
"k. c #4F4E4E",
"l. c #4F4E4F",
"z. c gray31",
"x. c #4B4B4B",
"c. c #504E4F",
"v. c #504F4F",
"b. c #504F4F",
"n. c #504F50",
"m. c #514F50",
"M. c #504F50",
"N. c #505050",
"B. c #515050",
"V. c #515151",
"C. c #525150",
"Z. c #525151",
"A. c #535353",
"S. c #545453",
"D. c #535353",
"F. c #595757",
"G. c #595958",
/* pixels */
"* +.0.%.| | | | | | | | | n n J | n 5 5 5 5 5 5 5 5 5 5 , , , > # | %.%.%.%.%.%.%.%.%.%.%.%.%.i.0.%.%.%.%.6.%.%.%.%.%.%.%.%.%.n ",
"$ n Z.j.j.j.u.0.0.0.0.0.0.8.4.%.%.%.%.%.%.%.#.| | | | A n n n : @ n j.u.j.j.j.j.j.v.v.j.j.j.i.u.j.j.j.v.Z.Z.n.Z.n.v.v.v.j.j.i.> ",
"$ > n p p p p p p p p p p p p A Y | +.+.Y Y p 5 2 2 2 , 2 > > $ o - 5 5 r 5 r r r r p p n n n n n n p p p p p p p p p r p p 2 $ ",
"$ - p p 5 p p 5 5 5 5 r p p n Y | +.#.#.+.Y n p 2 2 > 2 2 > > $ o - 2 2 5 n 5 2 r r r p n n n n n p p r 5 5 5 r r 5 p A r 5 2 * ",
"$ - 5 2 Y S.0.2 2 2 5 r p n Y | +.+.+.+.R Y A p 2 > #.Z.5 * > $ o * , , n Z.n.r 2 5 r p p n n n r r r 5 5 5 5 5 5 5 4.Z.| 2 2 * ",
"$ - 5 5 | u.| ; > 5 5 p n Y Y | | | R R R R Y p 2 2 Z.Z., % * $   * , > , 0.i.p , 5 r p p n n p r 5 r 5 5 5 5 5 5 5 n | A > 2 * ",
"# - 5 2 > = > * * 5 r p Y Y | | | | Y Y Y | Y n 2 2 A > : % $ $ X * , $ # > 2 > , 5 r p n n p p r r r 5 5 5 5 5 2 > J r > * > * ",
"# - 5 , * , p ; * 2 p n A Y | | | | Y | Y | Y n 2 > > , r * % $ X * > % $ 5 Y : > 5 r p n p p p p p r r 5 5 5 5 2 $ , p ; $ > * ",
"$ - 5 , $ * > * * 2 p A Y Y Y Y Y | Y | | Y Y p 2 > * > > % $ $ o * , # % > 1 * > 2 5 p p p p p p p p r 5 5 2 2 2 * # : * * > * ",
"$ - 5 2 * @ $ * : 2 p n Y Y Y Y Y Y Y Y Y A n p 2 > * $ & $ * $ o * , * @ @ $ * > 2 5 5 r p p r r p p r 5 5 2 2 2 : % $ & * > * ",
"$ - 5 2 > * * * > 2 5 p n Y Y Y Y Y Y A n p p 5 2 1 > * * * : $ o * , : * $ * : , , 2 5 5 r p p p 5 5 5 5 2 2 2 2 > * $ * : > * ",
"$ - 2 2 > : * : > 2 2 6 p p n n n n p p 5 2 2 2 1 1 > : ; ; : $ o * , > = * * > > , , 2 2 5 r p p 5 2 2 2 2 , , 2 , > * = > > * ",
"$ = 2 2 , > > > > 2 2 2 2 5 5 r r 5 5 2 2 2 2 2 1 1 1 1 > > > $ @ = > > > : > > > > > , , 2 2 5 5 2 2 , , , > > > , > > > > > * ",
"$ * * * * * * * * * : : : : : : > > > > > > > > > > > > > 1 : % % = > : : : = = * * * * * : : > > : : * * * * * * * * * * * ; & ",
"$ % @ @ @ @ % % @ @ % % % % % % $ $ $ $ * * * * * * * * * * * % $ * * * * $ $ $ $ % @ @ @ % % % % % % @ @ @ @ @ @ @ @ @ @ @ @ $ ",
"% % @ @ @ @ @ @ @ @ @ @ @ @ @ @ % @ % % % % % % % $ $ $ $ $ $ $ $ $ $ $ $ $ $ $ $ % % @ @ @ @ % % @ @ @ @ @ @ @ @ @ @ @ @ @ @ % ",
"0.0.| n n n n n n l r 5 5 5 5 * , 5 , > > > > > > > > > > > > 5 p , > > > > > - > , 5 n A | | > l | | | | | | | | | J A A n n | ",
"S.S.S.D.Z.Z.Z.Z.Z.n.v.v.j.j.#.% < Z.Z.Z.Z.Z.Z.Z.Z.Z.j.j.j.j.j.j.j.j.u.0.0.0.0.0.0.j.Z.D.S.F.8.$ n G.S.S.S.S.S.S.S.S.S.S.S.S.S.S.",
"n n n n n n A A n n n p p p : @ - A #.%.%.%.%.%.%.%.%.%.%.%.%.%.#.#.#.+.+.| | | | Y n n n n > $ * n n n A A A A A A A A A A A A ",
"2 2 2 2 2 2 2 2 2 , > , > 1 : @ - r n n n n A A A n n n n n n n n n n n n p p p r 2 , , 2 2 : $ * , , , , , , 2 2 2 2 2 2 2 2 2 ",
"2 2 2 2 2 2 2 2 1 2 0.#., 2 : @ = 5 p n 0.u.A n n n n n n n p p p p p p p p r r 5 n u.#., 2 : $ $ , , 2 0.0.5 , 2 2 2 2 2 2 2 2 ",
"1 1 1 1 1 1 1 1 > #.G.0.> > : @ = 5 p 5 | j.6 5 p p p p p p p p p p 5 5 5 5 r r 5 q.S.%., > : $ $ > > 5 u.Z.6 > 2 2 2 2 1 1 1 1 ",
"1 1 1 1 1 1 1 1 > r n 2 * ; : @ * 5 2 - > r > > p r r p p p p 5 5 2 2 2 2 5 5 r 5 r 2 , : > : $ $ > > = * 5 > * > 2 2 2 1 1 1 1 ",
"1 1 1 1 1 1 1 1 > * * 2 > * : % * r , * A 2 * * 5 5 2 5 5 5 2 2 , > > , , 2 5 p , * > 5 : : : $ $ , = * , > ; * > 2 2 1 1 1 1 1 ",
"1 1 1 1 1 1 1 1 > $ = 6 : & ; @ * 5 , # > 2 * ; 2 2 2 2 2 2 2 1 > > > > , , 5 p , * > > * : : $ $ , = % , 2 * * > , 2 , , , 1 1 ",
"1 1 1 1 1 1 1 1 > $ % & $ ; ; @ * 5 2 $ @ * * : , 2 1 1 1 1 1 1 > > > > > , 2 2 , $ $ & * > : $ $ > > @ @ * & : > , , , , , , 1 ",
"1 1 1 1 1 1 1 1 > : $ $ * : ; @ * , 5 > $ $ * > > 1 1 1 1 1 1 1 > > > > > > , , > * $ $ * > : $ $ > > * % % * : > , , , , , , , ",
"> , , , , , , , > > : * : : ; @ = , 2 , > : : : > > 1 1 1 1 1 1 > > > > > > > > > : * * : > : $ $ > > > * * = > > > > > > > > > ",
"> > > > > > > > > > : : : > ; @ = , 2 2 1 : : : > 1 1 1 1 1 1 > > : > > > > > > > : * = : > : $ $ > > : = : : > > > > > > > > > ",
": : : : : : : : : : : : : : * @ = > : : : : : : : : : : : : : : * * * * * * * * * * * * * = : * $ * * * * * * = : : : : : : : : ",
"% % % % % % % % % % % % % $ $ $ * $ % % % $ $ $ $ $ $ $ $ $ $ $ @ @ @ @ @ @ @ @ @ @ @ @ @ @ $ * % @ @ @ @ @ % % @ @ @ @ @ @ % % ",
"                          O O +       .     O O O O     O O O                                                                   ",
"$ $ $ $ $ $ $ % % % % % % % % % % % % % % % % % % % % % % % % % $ $ $ $ $ $ $ $ $ $ $ $ $ $ $ $ $ $ $ $ $ $ $ $ $ $ $ $ $ $ $ $ ",
"5 0.0.%.%.%.#.| | | | | | A n n n n n n n n 5 5 5 5 5 5 5 5 , * 5 0.0.0.0.0.0.0.0.0.0.0.0.0.0.0.0.0.0.0.0.0.0.0.0.0.0.0.0.0.%.> ",
"* | j.0.0.0.8.4.%.%.%.%.#.+.| | | A A n n n n n n l r 5 5 2 , % $ %.q.0.0.0.0.u.j.j.j.i.x.0.0.0.0.u.j.j.j.j.j.j.i.j.u.i.0.u.5 @ ",
"* r %.#.+.| | | | Y Y Y Y A n n p p p r r r r r 5 5 r n 5 2 > % # n | | Y | | Y | #.#.| Y Y n A Y Y | +.#.#.%.%.%.%.#.#.+.+.> @ ",
"* 5 #.| #.8.n n Y A Y n A p p r 5 5 5 5 5 5 5 5 5 5 %.Z.| , , % # r n p | S.4.2 p n n p p 6 5 5 5 p n A Y | | +.#.#.8.#.Y | > @ ",
"* 5 +.| 4.j.| > p A n n p p r 5 5 5 5 5 5 5 5 5 5 5 l A A = > % # 5 r 2 | 0.Y * > 5 2 2 2 2 2 2 2 2 5 p p A Y | Y +.Z.%., Y > @ ",
"* 5 +.J n | p $ , Y n n p r 5 2 , , , < < 5 5 5 5 > A l > $ > % % 5 5 , - = > * * 2 2 2 2 2 2 2 2 2 2 2 5 p n Y n 5 | p * 2 > @ ",
"* < +.< n u.2 % : A n p p r 5 2 , , , , 2 5 5 , 5 * , p : $ * % % , 5 > * , p * * 2 2 2 2 2 2 2 2 2 2 2 2 5 p Y 2 $ > #.> : > @ ",
"* < +., = p : % ; n n p p 5 5 2 2 2 2 2 2 5 5 , 2 * # : * % * % % , 5 > $ * : & * , 2 2 2 2 2 2 2 2 2 2 2 2 r Y 2 $ > A * : > @ ",
"* , | 5 $ * * & > p n n p r 5 5 2 2 5 5 5 5 5 5 5 > # $ * & = % % , 5 2 * @ $ * : , 2 2 2 2 2 2 2 2 2 2 2 2 p n p $ $ * & > > @ ",
"* , | n > $ * ; , n n p p p r 5 5 5 5 5 5 5 5 5 5 2 : * * * : @ % , 5 2 > * * * > , 2 2 2 2 2 2 2 2 2 2 2 5 p A A > $ * * 5 > @ ",
"* , Y Y p > ; > 5 n p p p p r 5 5 5 5 5 5 5 5 5 2 2 , : * * : @ % , 2 2 > : = : > 2 2 1 1 1 1 2 2 2 5 5 r p n A Y r > = > n > @ ",
"* , A n p 6 2 2 p p p p r 5 5 5 5 5 2 2 2 2 2 2 2 2 2 > > : > % % , 2 2 , > : > > 1 2 2 2 2 2 2 5 r p p p p p n n p r 2 5 p > @ ",
"* , p 5 5 6 2 2 2 2 2 2 2 2 2 2 2 2 , > > > > > > > > > > : : % # > > : : : : : > > , , , 2 2 2 2 2 2 2 2 2 2 2 2 2 2 5 2 5 : @ ",
"* * * * * ; * * ; * ; ; ; ; ; ; ; * * * * * * * * * * * * * * % % # # $ $ $ $ $ $ $ $ * * * * $ * * * * * * * * * * * * * * * % ",
"$ $ $ $ $ $ $ $ $ $ $ $ $ $ $ & $ $ % % % % % % % % % % % % % % # % @ % % % % % % % % % % % % % % % % % % % $ % % % % % $ $ $ $ ",
"n 5 , > > > > > > > > > > > - $ , 6 n | | | | | | | | | | | | | 0.0.| n n 5 , , , > , , , , , * > , , , , , , , , , , > > > , 5 ",
"j.j.j.j.j.0.0.0.0.0.0.4.%.%.n % r Z.S.S.S.S.S.S.S.S.S.S.S.S.S.S.D.D.D.Z.Z.Z.Z.v.v.Z.Z.Z.Z.Z.#.$ l D.Z.Z.Z.Z.Z.Z.Z.Z.Z.v.j.j.j.j.",
"| @.@.| | | | Y Y Y Y A n p > @ > n n n n n n p n n p p p p p p p p p p p p n Y | | | | +.@.> $ * +.#.#.#.#.#.#.#.#.#.#.#.+.+.| ",
"n n n n p p p p p r r p 5 5 ; @ - , , , , , , 2 2 2 2 2 2 2 2 2 2 2 2 2 2 2 2 5 p p p p p n > $ * n A n n n n A A n n n n n n n ",
"p p p p p p p p 5 Y j.| , 2 : @ = , , 2 0.j.p , , 2 2 2 2 2 2 2 2 2 2 2 2 2 2 5 5 n j.8.p p > $ * p n n j.x.n n n n n n n p p p ",
"p p p p p p p p 5 q.S.| * > : @ = , > 5 0.Z.n > , , 1 1 1 1 1 1 1 1 1 1 1 2 2 5 , r j.0.2 5 > $ * r p 5 | i.5 5 n p p p p p p p ",
"p p p p p p p p 5 r 2 > $ * : @ = , > = * 2 > : , , , , 1 1 1 1 1 1 1 1 2 2 2 5 > < 5 2 ; , > $ * p , = > 5 : > p p p p p p p p ",
"p p p p p p p p 2 * > n > $ ; @ = , = * , > ; * > , , , , 1 1 1 1 1 1 1 2 2 5 5 * * * 2 > : : $ * p > * A 2 * ; p p p p p p p p ",
"p p p p p p p p 2 * > 2 * * * @ = , : @ > 2 ; * > , , , , , 1 1 1 1 1 1 2 2 5 5 * # = 2 ; : : $ * r , % > 2 * : p p p p p p p p ",
"p p p p p p p r 5 * $ & & * * @ - , , % @ * & : > , , , , , , 1 1 1 1 2 2 2 5 5 > % # & * 2 : $ * r 5 $ % * * > p p p p p p p p ",
"p p p p p p r r r > * * * : * @ > 5 2 : $ $ * : > , , , , , , , , 1 1 2 2 5 5 5 > * $ * : 2 : $ * r 5 > $ * * , p p p p p p p p ",
"5 5 5 5 5 2 5 5 5 2 > : : > ; @ > 5 2 > : : : : > > > > > > > > , , , > 2 2 2 5 , > : : > 5 : $ * 5 5 , > : > 2 r 5 5 5 6 6 5 5 ",
"2 2 2 2 2 2 2 2 2 2 2 > > 2 ; @ > 5 2 2 > > > > > > > > > > > > > > > > , , , 2 2 , , , 2 2 : $ * < 5 5 2 , 2 5 5 5 5 5 5 5 5 2 ",
"> > > > : : > > > > > > : > * @ > , > > : : : : : : : : : : : ; : : : : : : : : : : : : > > : $ $ > > > > > > > > > > > > > > > ",
"$ $ $ $ $ $ $ & $ $ $ $ & * & % * * & $ & & & & & & * & & $ % % @ @ @ @ @ @ @ @ @ @ @ @ @ % $ $ % @ @ % % % @ % % % % % % % $ $ ",
"$ * $ $ $ $ $ * $ $ $ $ * * * * * * $ $ $ * * * * $ $ $ $ % % @ @ @ % % # $ $ $ $ $ $ $ $ $ * ; * $ $ $ $ $ $ $ $ $ $ $ $ $ $ $ "
};
