/* XPM */
static char *_2955bc2edf34c24a8ecd37e6ef3255e[] = {
/* columns rows colors chars-per-pixel */
"64 64 256 2 ",
"   c black",
".  c #010101",
"X  c #020202",
"o  c gray1",
"O  c #040404",
"+  c gray2",
"@  c #060606",
"#  c #070707",
"$  c gray3",
"%  c #090909",
"&  c gray4",
"*  c #0B0B0B",
"=  c #0C0C0C",
"-  c gray5",
";  c #0E0E0E",
":  c gray6",
">  c #101010",
",  c #111111",
"<  c gray7",
"1  c #131313",
"2  c gray8",
"3  c #151515",
"4  c #161616",
"5  c gray9",
"6  c #181818",
"7  c #191919",
"8  c gray10",
"9  c #1B1B1B",
"0  c gray11",
"q  c #1D1D1D",
"w  c #1E1E1E",
"e  c gray12",
"r  c #202020",
"t  c gray13",
"y  c #222222",
"u  c #232323",
"i  c gray14",
"p  c #252525",
"a  c gray15",
"s  c #272727",
"d  c #282828",
"f  c gray16",
"g  c #2A2A2A",
"h  c gray17",
"j  c #2C2C2C",
"k  c #2D2D2D",
"l  c gray18",
"z  c #2F2F2F",
"x  c gray19",
"c  c #313131",
"v  c #323232",
"b  c gray20",
"n  c #343434",
"m  c #353535",
"M  c gray21",
"N  c #373737",
"B  c gray22",
"V  c #393939",
"C  c #3A3A3A",
"Z  c gray23",
"A  c #3C3C3C",
"S  c gray24",
"D  c #3E3E3E",
"F  c #3F3F3F",
"G  c gray25",
"H  c #414141",
"J  c gray26",
"K  c #434343",
"L  c #444444",
"P  c gray27",
"I  c #464646",
"U  c gray28",
"Y  c #484848",
"T  c #494949",
"R  c gray29",
"E  c #4B4B4B",
"W  c #4C4C4C",
"Q  c gray30",
"!  c #4E4E4E",
"~  c gray31",
"^  c #505050",
"/  c #515151",
"(  c gray32",
")  c #535353",
"_  c gray33",
"`  c #555555",
"'  c #565656",
"]  c gray34",
"[  c #585858",
"{  c gray35",
"}  c #5A5A5A",
"|  c #5B5B5B",
" . c gray36",
".. c #5D5D5D",
"X. c gray37",
"o. c #5F5F5F",
"O. c #606060",
"+. c gray38",
"@. c #626262",
"#. c gray39",
"$. c #646464",
"%. c #656565",
"&. c gray40",
"*. c #676767",
"=. c #686868",
"-. c DimGray",
";. c #6A6A6A",
":. c gray42",
">. c #6C6C6C",
",. c #6D6D6D",
"<. c gray43",
"1. c #6F6F6F",
"2. c gray44",
"3. c #717171",
"4. c #727272",
"5. c gray45",
"6. c #747474",
"7. c gray46",
"8. c #767676",
"9. c #777777",
"0. c gray47",
"q. c #797979",
"w. c gray48",
"e. c #7B7B7B",
"r. c #7C7C7C",
"t. c gray49",
"y. c #7E7E7E",
"u. c gray50",
"i. c #808080",
"p. c #818181",
"a. c gray51",
"s. c #838383",
"d. c #848484",
"f. c gray52",
"g. c #868686",
"h. c gray53",
"j. c #888888",
"k. c #898989",
"l. c gray54",
"z. c #8B8B8B",
"x. c gray55",
"c. c #8D8D8D",
"v. c #8E8E8E",
"b. c gray56",
"n. c #909090",
"m. c gray57",
"M. c #929292",
"N. c #939393",
"B. c gray58",
"V. c #959595",
"C. c gray59",
"Z. c #979797",
"A. c #989898",
"S. c gray60",
"D. c #9A9A9A",
"F. c #9B9B9B",
"G. c gray61",
"H. c #9D9D9D",
"J. c gray62",
"K. c #9F9F9F",
"L. c #A0A0A0",
"P. c gray63",
"I. c #A2A2A2",
"U. c gray64",
"Y. c #A4A4A4",
"T. c #A5A5A5",
"R. c gray65",
"E. c #A7A7A7",
"W. c gray66",
"Q. c #A9A9A9",
"!. c #AAAAAA",
"~. c gray67",
"^. c #ACACAC",
"/. c gray68",
"(. c #AEAEAE",
"). c #AFAFAF",
"_. c gray69",
"`. c #B1B1B1",
"'. c #B2B2B2",
"]. c gray70",
"[. c #B4B4B4",
"{. c gray71",
"}. c #B6B6B6",
"|. c #B7B7B7",
" X c gray72",
".X c #B9B9B9",
"XX c gray73",
"oX c #BBBBBB",
"OX c #BCBCBC",
"+X c gray74",
"@X c gray",
"#X c gray75",
"$X c #C0C0C0",
"%X c #C1C1C1",
"&X c gray76",
"*X c #C3C3C3",
"=X c gray77",
"-X c #C5C5C5",
";X c #C6C6C6",
":X c gray78",
">X c #C8C8C8",
",X c gray79",
"<X c #CACACA",
"1X c #CBCBCB",
"2X c gray80",
"3X c #CDCDCD",
"4X c #CECECE",
"5X c gray81",
"6X c #D0D0D0",
"7X c gray82",
"8X c #D2D2D2",
"9X c LightGray",
"0X c gray83",
"qX c #D5D5D5",
"wX c gray84",
"eX c #D7D7D7",
"rX c #D8D8D8",
"tX c gray85",
"yX c #DADADA",
"uX c gray86",
"iX c gainsboro",
"pX c #DDDDDD",
"aX c gray87",
"sX c #DFDFDF",
"dX c gray88",
"fX c #E1E1E1",
"gX c #E2E2E2",
"hX c gray89",
"jX c #E4E4E4",
"kX c gray90",
"lX c #E6E6E6",
"zX c #E7E7E7",
"xX c gray91",
"cX c #E9E9E9",
"vX c #EAEAEA",
"bX c gray92",
"nX c #ECECEC",
"mX c gray93",
"MX c #EEEEEE",
"NX c #EFEFEF",
"BX c gray94",
"VX c #F1F1F1",
"CX c gray95",
"ZX c #F3F3F3",
"AX c #F4F4F4",
"SX c gray96",
"DX c #F6F6F6",
"FX c gray97",
"GX c #F8F8F8",
"HX c #F9F9F9",
"JX c gray98",
"KX c #FBFBFB",
"LX c gray99",
"PX c #FDFDFD",
"IX c #FEFEFE",
"UX c white",
/* pixels */
"7.w.r.r.q.8.7.9.9.0.q.q.9.4._ ^ ) U ) p.0.q.r.0.6.8.9.q.q.q.w._ :.t.e.r.q.7.8.9.0.0.q.q.9.2.( ^ _ I ] p.0.w.r.9.6.9.0.q.q.q.q.! ",
"X.L P K K H J J G J J L H L c h l p s T H K L J H K H K H G S f ` P P J J H J J G J J L H K z h l u g T H K L J H K H K G G D r ",
"o.H J G H H F F H G J J G L N c n h s L H H J K D G G H G Z S k ' J J G J H F F H G H H G L m c n g f P H H J J D H G H G Z D p ",
"o.K L J K J K H H H G K J L M x b g d P G J J J J H G H J G H z ' L L J K J K H H H F K J K n x b f h P G J J J J H G H J F J a ",
"| D F D D D D D D A C D D G M x b g u D Z F F D F C C D S S G h / F F D D F D S S Z Z F D G m x b f p D A F F F D C Z D S S G y ",
"=.^ ( ^ ^ ^ / ~ ~ W W ^ ^ ) M x b h b ) ~ ( ( / ^ ~ ! ^ ^ ^ ) Z X./ ( ^ ^ ^ ^ ! ~ E W ^ ^ ( m x b g m _ ~ ( / / ^ ! ! ^ ^ ^ _ c ",
"W D H G G G G G G G G G G F v c c x A H G G G G G G G G G G J B H G G G G G G G G G G G H D c c c c A H G G G G G G G G G G K x ",
"B h k k k k j j j j j j k k c c c v z j k j k k j j j j j j k d z j k k k k j j j j j j j k c c c v z j k j k k j j j j j j l t ",
"z 9 q q 0 9 q q w w q w 9 u b x v z 7 9 0 q 0 q q w w w w w q 6 f 0 0 0 0 9 q q w w q w 9 i b x v l 7 9 0 q 0 q q w w w w w w < ",
"+.F F A A D D F J F S F F K M x b h t C Z V C S S G H H F G S s [ F F Z S D D F J F S F F J m x b f u Z Z V Z S S G H H D G S w ",
"..S S D Z D J H K G Z F K P m x b h i S F S D H G G J H D H A s ) S S D Z F J H K F Z F K P n x b f a D F S F H G G J G D J A w ",
"[ D F F A S A A H F S Z G K M x b g p G A G Z D G F J D G H N a ^ D F F A S A A H F A Z H K n x b f s G S F Z D G F J D G G N w ",
"{ S F H S G G S F F G S D H M x b h p D Z Z V S D G J G F D M s ^ S F H S G F S F F G A D H n x b f s D Z Z V S D G J G G D N e ",
"..I U I P Y Y U Y L L I J L M x b g f L H H H H J P U U I U H d _ U U I P Y Y U Y L P I J K m x b f h L G H H H J P U U I U H r ",
"W p s a a a p p p i i u r g M x v j 6 p u y u r u i p a s s y e P p s a a a p p p i i y r j M x b g 7 a u y u r u i p s s s u 4 ",
"! Y E T U T R R U P L U U T m x b g h T I T U U U T R R R R R F I R E Y U T R R U P L I U Y n x b d k T I T U U U T R R R R E B ",
"-.X... .| ....X...} ` |  .} m x b f n o.] [  .X...X.O.o.O.X.X.B o.o... .| ....X...{ ` | ..[ b x b s B o.] [  .X...o.O.o.O.X...x ",
"..B C A S A Z C A N M S C F M x b h y A B V S D V D F D G S C f _ B C A S A Z C A N M S V F m x b f i S B V D S V F F D G S Z r ",
"..H H K I L K H J F S K D H M x b g d K J H J L H F H K I L J h _ J H K I L K H J D S K D H m x b f h K J H K L H G H K I L J y ",
"o.H D D L J J F G G H K S F M x b g s K H J K L K H J J K K H j ' J D F L J J F G F H K S F m x b f g K H H K L K H J J K K J u ",
"..D Z F H G H Z S F J J H L m x b g a P H H K J J L K P J J L h _ D Z F G G H Z S F K J H L n x b f f P H H K J J L K P H K L u ",
"| S Z G F H J Z C D K J K U M x b g s L G J J F H L K K H K I j ( S A H D H H Z C F K J K I n x b f f L G J J F H L K K H K I u ",
"| D A G L J H H G G J L I U m x b g a I K K K G J L K K K K L h ( D A G L J H H F G J L I I n x b f f I K K J G J L K K K L P t ",
"{ D A F G F F F G F G J P P m x b g p K G G H F F L H H G H G a ^ D A F G F F F G F F J P P n x b f s L G G H F F L H H G H G w ",
"+.E U Y T E T E E T R R Q ~ M x b g l Q T R W T R W E E T W E x [ W U T R R T E E R R R Q ! m x b f x Q T R W T R W E R T W E s ",
"] T E E R E E E E E E E E R b c v z G Q R E E E E E E E E E W F W E E E R E E E E E E E E Y v c c z H W R E E E E E E E E R Q M ",
"B h k k k k k k k k k j k k x c c v x j k k k k k k k k k j k d z j k k k k k k k k k j k k c c c v z j k k k k k k k k k j z t ",
"k 0 q q w w w w q q w e q u b c v z 0 w w q w w q w w w w w w 8 s q q q w w q w q q w e 0 i b x v l 9 w w w w w q w w w w w e 1 ",
" .D F F D D D D F S D G S K M x b g p J D D F S D G F D S D D g ) F G F D D S D F S F G S J m x b f s K D D F S D G F D S F D t ",
"..J L K H G J H J K J J G H M x b g d K D F G D F J L K H H S g _ K L K H G H H J J J J G H m x b f g K D F G D G K L K J H D y ",
"..H H J K H H G G H J K F J M x b g s K F F D D D H J J G G Z d _ J H J K H H H G H J K F J n x b f g L F F D D F H J K G G Z r ",
"..H J K K J K H S F J K H K M x b g s T A A A A J K J G F K A a _ J J K K J K H S G J K G K m x b f g T Z A Z A J K J G F K A w ",
" .H G J J J P H Z D G J H P M x b g f U F D S D G H J G A D D s ) J G J J J P G A D G J H L n x b d h U F D S F H H J F A D S w ",
"| L L P L L P L L L K P K P M x b g f Y K K L K J K L P G J F s ( P L P L L P L L L J P K P n x b f j Y K K P K H K L P G J F e ",
"' b m m M m N B m N m M v B M x b h t N m m b b m m M M b b z y Q b m m M m N B m N m M v B m x b g y N m m b b m m M M b b x 7 ",
"U z b b b n m N M m n n v B M x b h r m n v b v v v c n b c v b G x v b b n m N M m n n v B m x b f t m n b b c v c c n b c b h ",
";.*.&.$.$.;.-.=.>.:.=.*.-.O.m x b d A ,.&.*.*.&.&.%.$.=.&.%.*.G O.-.&.$.$.;.-.-.>.:.=.*.-.X.b x n a G ,.&.*.=.*.&.$.%.=.&.%.&.V ",
"..V N C A A S Z D G S D A F M x b g p S Z A A V C m N S A S V s ) V N C A A S Z D G S D A F m x b f s S Z A A V C m N S A A C w ",
"o.F F G J L K K P P J P H L M x b g s D F J H D D A F K K K H h ' G F G K L L J P P K P H L n x b f f D G J H D D A F K K K H u ",
"X.S S S G H F H K J J L A J M x b g a A Z H D A B Z K J H J D g ` S S S G H F H K J J L A H m x b f d A Z H D A B Z L J H J D y ",
" .H S n A J G G J J K P F K M x b h i D C Z D A Z F L K J J D f _ J S n S J F G J J K L F K n x b f a D V Z D A Z F L J J J D t ",
" .H Z B S F F H H J K K F L M x b g s F S F D A D J P J J G D f ) H Z B S F F H H J K K F K n x b f f F S F D A D J P J J G F r ",
"X.H A C G F S D J K K J S I M x b g u H C G H F J K L J J H F f ` H A C G F S F J K K J D I m x b f a J C G H F J K P J J H F t ",
"@.( / / ) / ( ( ) ) ) ( ) ) m x v k D ` ^ / ( / ) _ ( / ) ) ) J [ _ / / ) / ( ( ) ) ) / ) ( b x v k H ` ^ ( ( ^ _ _ ( ( ) ) _ V ",
"G v m n n n n n n n n n n b c c c c m n n n n n n n n n n b m l M n n n n n n n n n n n n b c c c v m n n n n n n n n n n b M a ",
"k t u y y y y y u u y y y p c c c c p y u y y y u y y y y y u r a y u y y y y y u u y y y a c c c c i y y y y y u y y y y y i 8 ",
"P j j k l z k k j h j k j b m x v j 0 z g j k j h j k h g d f q D k k k l l k k h h k k j n n x b g q z g j k j h j k h g d g 4 ",
"#.Y I I Y U I P J P I I P Y M x b g f T J P U I J H K J K J J j } T I I Y U I P J P I U P Y n x b f j Y J P U U H H K J K K J i ",
"..K G H L H J H H J L K H L M x b g s K F G G F F H S F G H G h ` K G J L G J H H J L K H K n x b f f K F H G F F H S F G H H y ",
"..G F G J H J J H J L J J P M x b g a K H G F F F G D H G G F g _ H F G J G J J H K L J J P n x b f f L H G F F F G D H G G F y ",
"#.L L P L P U I P P I I P Y M x b g g T P P H K L K J I J J P h { P L P L P U P P P I I P U n x b d k T P P H K L K J I H J P u ",
"U e y r t y u y y r y t r k M x v k 3 t r t r r r e e y w 0 q u F e y r t y u t y r y t r l M x b h 3 y r y r r r e r y q 9 e 8 ",
"o.+.o.O.O.o.+.+.X...o.O.@...m x b f M $...o.O.+.X...O.O.O...o.U ' #.o.O.O.o.+.+.X...o.O.@.| b x b s C $...o.O.+.X.X.O.O.O...o.H ",
"#.! E W R R W T E E T W W Q m x b g j ^ R R R E R R W E W E I k { ~ E W R R E T E E T W W W n x b d z ^ R R R E R R W E W E I p ",
"..G D F F H H S F G S F G L M x b h i F D F F H G F F F H F S g _ G D F F H G S F F S F G L n x b f s F D F F H G F F F H D D y ",
"..J D K J G H J K H H H H I M x b g a J D H H K L K K J P K A d _ J D K J G H J K H H H J I n x b f f K D H J K L K K J L K A e ",
"| D G H H F F J J F D F H U M x b g a K F G F H L K J K L J V p ( D G H H F F J J F D G H U n x b f f K F G F H L K J K L H V q ",
" .G H J K H S H J H S F H I M x b h p G F H G H K J G J J F D d _ H H J K G S H J H S G H I n x b f s H F H G H K J H J H F D e ",
" .J H K H H G H K J H J H P M x b g p P F H G S H H H L J J F d _ J H K H H G J K J H J H L n x b f s P F H G S H H H L J J F r ",
"..J K J K H H K J J J H G P M x b g a J D J F G S F K P J J F s _ K K J K H H K J J J H G P n x b f d J F J F F S F K P H J D w ",
"O.L K H J G H K K J J G D P M x b g s P G H G H J F J K H J A d ] L J H J G H K K J J H D L n x b f f P G H G H J F J K H J A r ",
"O.L J G F F H K K J K K J P m z v g s I F G H H J J H J G D H j ] L J G F D H K K J K K H P n z b d g I F G H H J J H J G D H u ",
"o.F H G F F H G G G J J F K B v m j s L H G G F F H H J F D A h ' G H F D F H G G G J J F L N v m h f P H G G F D H H J D D S y ",
"B < 5 6 2 < 3 1 4 4 4 4 , 0 s t u e : 5 5 4 4 3 2 3 3 5 4 2 1 e c < 5 6 2 < 3 2 4 4 4 4 , w a t u w : 6 5 4 4 4 2 3 4 5 4 2 3 4 "
};
