/* XPM */
static char *_402fce58f254bd3c24c35cbae11172b0sJxjBSfV3iTx3Al[] = {
/* columns rows colors chars-per-pixel */
"64 64 241 2 ",
"   c #373636",
".  c #40403F",
"X  c #403F3E",
"o  c #40403E",
"O  c gray25",
"+  c #3E3E3E",
"@  c #3E3E3D",
"#  c #3F3F3E",
"$  c #373535",
"%  c #414040",
"&  c gray22",
"*  c #251E1E",
"=  c #373434",
"-  c #414140",
";  c #3F3E3E",
":  c #3F3F3F",
">  c #393737",
",  c #272322",
"<  c #241E1E",
"1  c #383535",
"2  c #383737",
"3  c #282423",
"4  c #221E1E",
"5  c #251D1D",
"6  c #404140",
"7  c #41403F",
"8  c #404141",
"9  c #414141",
"0  c #403F3F",
"q  c #3E3E3F",
"w  c #3E3F3F",
"e  c #3E3F3E",
"r  c #292322",
"t  c #26221E",
"y  c #231E1E",
"u  c #232020",
"i  c #251F1F",
"p  c #353232",
"a  c #383735",
"s  c #383736",
"d  c #393736",
"f  c #393636",
"g  c #393635",
"h  c #373534",
"j  c #2A2624",
"k  c #27231F",
"l  c #272420",
"z  c #231F1F",
"x  c #302B2B",
"c  c #332F2F",
"v  c #322E2E",
"b  c #322F2E",
"n  c #32302E",
"m  c #32302F",
"M  c #323030",
"N  c #343030",
"B  c #353030",
"V  c #353031",
"C  c #292521",
"Z  c #312C2C",
"A  c #33302F",
"S  c #33312F",
"D  c #333130",
"F  c #333131",
"G  c #343131",
"H  c #353131",
"J  c #292522",
"K  c #302C2C",
"L  c #332E2F",
"P  c #333030",
"I  c #333031",
"U  c #342F31",
"Y  c #343132",
"T  c #2D282C",
"R  c #2D262D",
"E  c #2D282D",
"W  c #2E272D",
"Q  c #2E272E",
"!  c #2F282F",
"~  c #2B2328",
"^  c #363232",
"/  c #2C2929",
"(  c #302A2E",
")  c #312A2E",
"_  c #312B2E",
"`  c #312D2E",
"'  c #302A2D",
"]  c #251D1E",
"[  c #231818",
"{  c #231D1D",
"}  c #2E292A",
"|  c #302B2D",
" . c #312A2D",
".. c #312C2D",
"X. c #312E2D",
"o. c #312D2D",
"O. c #322E2D",
"+. c #30292B",
"@. c #272021",
"#. c #332F2E",
"$. c #353130",
"%. c #231919",
"&. c #231717",
"*. c #231C1C",
"=. c #302C2B",
"-. c #342F30",
";. c #2F292B",
":. c #312B2D",
">. c #302A2B",
",. c #282020",
"<. c #35312F",
"1. c #231918",
"2. c #231C1B",
"3. c #302D2B",
"4. c #2E292B",
"5. c #34312F",
"6. c #2E292C",
"7. c #231B1B",
"8. c #30292C",
"9. c #33322F",
"0. c #282021",
"q. c #282022",
"w. c #332F30",
"e. c #2E2A2C",
"r. c #282122",
"t. c #322F2F",
"y. c #342E2E",
"u. c #2E2B2C",
"i. c #332E2E",
"p. c #31292B",
"a. c #272122",
"s. c #312E2E",
"d. c #34302F",
"f. c #27231E",
"g. c #2F2B2B",
"h. c #332D2E",
"j. c #342E30",
"k. c #342F2F",
"l. c #231B1C",
"z. c #332D2D",
"x. c #322D2F",
"c. c #292122",
"v. c #231A1A",
"b. c #2F2A2B",
"n. c #2F2C2C",
"m. c #312C2E",
"M. c #312D2F",
"N. c #332D2F",
"B. c #292222",
"V. c #231718",
"C. c #2F2A2A",
"Z. c #322D2D",
"A. c #2D2A2B",
"S. c #2F2B2C",
"D. c #302A2C",
"F. c #302B2C",
"G. c #302D2C",
"H. c #302D2D",
"J. c #302D2E",
"K. c #2F292A",
"L. c #272020",
"P. c #2F2929",
"I. c #353333",
"U. c #393938",
"Y. c #393A38",
"T. c #393A39",
"R. c #3A3A39",
"E. c #373435",
"W. c #393436",
"Q. c #383635",
"!. c #383636",
"~. c #322C2E",
"^. c #322C2D",
"/. c #241818",
"(. c #302929",
"). c #251818",
"_. c #302A2A",
"`. c #332E30",
"'. c #2E2628",
"]. c #312A2C",
"[. c #241A1B",
"{. c #292226",
"}. c #2A2327",
"|. c #2A2328",
" X c #2A232A",
".X c #2A242A",
"XX c #2A272B",
"oX c #2A272C",
"OX c #2B272D",
"+X c #2C272D",
"@X c #2D272D",
"#X c #2A272D",
"$X c #292627",
"%X c #272320",
"&X c #27221E",
"*X c #221717",
"=X c #24191B",
"-X c #2A222A",
";X c #2A252A",
":X c #29272D",
">X c #26221F",
",X c #292527",
"<X c #261D1D",
"1X c #2A2227",
"2X c #2B2529",
"3X c #2B2428",
"4X c #2B2528",
"5X c #2B252A",
"6X c #2B252B",
"7X c #2B272B",
"8X c #2B292E",
"9X c #2B282E",
"0X c #2C282E",
"qX c #2E282E",
"wX c #2D282E",
"eX c #2A2727",
"rX c #2B282D",
"tX c #2B2828",
"yX c #3F3E3C",
"uX c #3F3E3D",
"iX c #3F3E3F",
"pX c #3F3F3D",
"aX c #3F3D3D",
"sX c gray24",
"dX c #3D3C3C",
"fX c #363434",
"gX c #414240",
"hX c #403E3E",
"jX c #3F403F",
"kX c #393837",
"lX c #2A2329",
"zX c #2A272E",
"xX c #292628",
"cX c #272220",
"vX c #241A1A",
"bX c #282126",
"nX c #2A262A",
"mX c #2A282D",
"MX c #292526",
"NX c #292126",
"BX c white",
/* pixels */
"  . X o O O O O O O O O O O O O O O O O O o o X + + + + + @ #   $ % X o O O O O O O O O O O O O O O O O O o o X + + + + + @ # & ",
"* = - o . O O O O O O O O O O O O O O O o o X ; + + + + + : > , < 1 - o . O O O O O O O O O O O O O O O o o X ; + + + + + : 2 3 ",
"4 5 = 6 7 8 9 9 9 9 9 9 - - - - 6 6 6 6 . . 0 0 q w e + : 2 r t y 5 = 6 7 8 9 9 9 9 9 9 - - - - 6 6 6 6 . . 0 0 q w e + : 2 r t ",
"u 4 i p 1 1 1 1 1 a a a s s s s d d d f f f f f f f g g h j t k u 4 i p 1 1 1 1 1 a a a s s s s d d d f f f f f f f g g h j t l ",
"z z z x c v v v v b n n m M M M M N B N N N N N N N N V c C k k z z z x c v v v v b n n m M M M M N B N N N N N N N N V c C k k ",
"z z z Z N c c c c c c A S S D F F F G H H H H H H H H H N J k k z z z Z N c c c c c c A S S D F F F G H H H H H H H H H N J k k ",
"z z z K N c c c c c c c A S S S D F F F G H H H H H H H N C k k z z z K N c c c c c c c A S S S D F F F G H H H H H H H N C k k ",
"z z z K N c c c c c c c L c A A A A A P I U U Y H H H H N C k k z z z K N c c c c c c c L c A A A A A P I U U Y H H H H N C k k ",
"z z z K N c c c T R E W W W W W W W W W Q Q ! ~ v ^ H H N C k k z z z K N c c c T R E W W W W W W W W W Q Q ! ~ v ^ H H N C k k ",
"z z z K N c c c / ( ) _ _ _ _ _ _ _ _ _ _ ` ' ] v ^ H H N C k k z z z K N c c c / ( ) _ _ _ _ _ _ _ _ _ _ ` ' ] v ^ H H N C k k ",
"[ { z K N c c c } |  ...X.o.o.o.o.o.o.o.o.O.+.@.#.$.$.H N C k k %.{ z K N c c c } |  ...X.o.o.o.o.o.o.o.o.O.+.@.#.$.$.H N C k k ",
"[ &.*.=.-.c c c ;.:. .:.o.o.o.o.o.o.o.o.o.O.>.,.#.<.<.$.N C k k 1.&.*.=.-.c c c ;.:. .:.o.o.o.o.o.o.o.o.o.O.>.,.#.<.<.$.N J k k ",
"[ &.2.3.-.c c c 4.:. ...o.o.o.o.o.o.o.o.o.O.>.,.#.5.<.<.N C k k %.&.2.3.-.c c c 4.:. ...o.o.o.o.o.o.o.o.o.O.>.,.#.5.<.<.N J k k ",
"[ &.2.=.N c c c 6.:. ...o.o.o.o.o.o.o.o.o.v +.,.#.S 5.<.N C k k %.&.2.=.N c c c 6.:. ...o.o.o.o.o.o.o.o.o.v +.,.#.S 5.<.N J k k ",
"[ &.7.x N c c c 6.:. ...o.o.o.o.o.o.o.o.o.v 8.,.c 9.S <.N C k k %.&.7.x N c c c 6.:. ...o.o.o.o.o.o.o.o.o.v 8.,.c 9.S <.N J k k ",
"[ &.7.x N c c c 6.:. ...o.o.o.o.o.o.o.o.o.v +.0.c 5.S 5.N C k k %.&.7.x N c c c 6.:. ...o.o.o.o.o.o.o.o.o.v +.0.c 5.S 5.N J k k ",
"[ &.7.x N c c c 6.:. ...o.o.o.o.o.o.o.o.o.v +.q.c c c S N C k k %.&.7.x N c c c 6.:. ...o.o.o.o.o.o.o.o.o.v +.q.c c c S N J k k ",
"[ &.7.x w.c c c e.:. ...o.o.o.o.o.o.o.o.o.v +.r.t.A c c -.C k k %.&.7.x w.c c c e.:. ...o.o.o.o.o.o.o.o.o.v +.r.t.A c c -.J k k ",
"[ &.7.x y.L c #.u.:. ...o.o.o.o.o.o.o.o.o.i.p.a.s.c c c d.J k k %.&.7.x y.L c #.u.:. ...o.o.o.o.o.o.o.o.o.i.p.a.s.c c c d.J f.k ",
"[ &.7.g.y.h.c #.u.:. .:.o.o.o.o.o.o.o.o.o.j.8.r.v c c c k.J k k %.&.7.g.y.h.c #.u.:. .:.o.o.o.o.o.o.o.o.o.j.8.r.v c c c k.J f.k ",
"[ &.l.g.i.z.L #.u.:. ...o.o.o.o.o.o.o.` x.j.+.c.v c c c k.J k k %.&.*.g.i.z.L #.u.:. ...o.o.o.o.o.o.o.` x.j.+.c.v c c c k.J f.k ",
"[ [ v.b.v z.h.i.n.m. .o.o.o.o.o.o.o.` M.N.j.8.B.v c c c c J k k 1.V.v.b.v z.h.i.n.m. .o.o.o.o.o.o.o.` M.N.j.8.B.v c c c c J f.k ",
"[ [ 1.C.v Z.z.i.A.S.D.K F.x G.G.G.H.J.H.` ` K.L.v c c c #.C k k 1.[ 1.C.v Z.z.i.A.S.D.K F.x G.G.G.H.J.H.` ` K.L.v c c c #.J k k ",
"[ [ [ P.v o.z.v I.U.U.U.Y.Y.Y.T.T.T.Y.T.T.U.R.N Z.c c c b C k k 1.[ [ P.v o.z.v I.U.U.U.Y.Y.Y.T.T.T.Y.T.T.U.R.N Z.c c c b C k k ",
"[ [ [ P.v o.z.i.E.W.Q.Q.Q.!.!.!.!.!.!.f g g f !.-.c c c b C k k 1.[ [ P.v o.z.i.E.W.Q.Q.Q.!.!.!.!.!.!.f g g f !.-.c c c b C k k ",
"[ [ [ P.v o.Z.z.~.^.^.Z.Z.Z.Z.Z.Z.Z.Z.Z.Z.Z.Z.Z.c c c c b C k k 1.[ [ P.v o.Z.z.~.^.^.Z.Z.Z.Z.Z.Z.Z.Z.Z.Z.Z.Z.Z.c c c c b C k k ",
"[ [ /.(.v o.o.Z.N.N.N.c c c c c c c c c c c c c c c c c b C k k 1.[ /.(.v o.o.Z.N.N.N.c c c c c c c c c c c c c c c c c b C k k ",
"[ [ )._.v o.s.Z.i.`.L L A c A c c c c c c c c c c c c k.b C k k 1.[ )._.v o.s.Z.i.`.L L A c A c c c c c c c c c c c c k.b C k k ",
"[ [ /.'.].].].].].Z Z ..m.m.m.m.m.m.m.m.m.m.m.m.m.m.m.s.o.C k k 1.[ /.'.].].].].].Z Z ..m.m.m.m.m.m.m.m.m.m.m.m.m.m.m.s.o.C f.k ",
"[ &.[.{.}.}.}.}.|.|. X X X X.XXXoXoXOXOX+X@X@X@XOXOXOXOX#X$X%X&X%.&.[.{.}.}.}.}.|.|. X X X X.XXXoXoXOXOX+X@X@X@XOXOXOXOX#X$X%Xk ",
"*X=X{.}.}.}.}.}. X X X X X-X;XoX#X#X#X:XOX@X@X@X#X:X:X#X#X#X$X>X*X=X{.}.}.}.}.}. X X X X X-X;XoX#X#X#X:XOX@X@X@X#X:X:X#X#X#X,X>X",
"<X1X2X3X4X4X4X5X6X6X6X6X6X6X7X8X9X9X9X9X0XqXqXwX9X9X9X9X9X9X8XeX<X1X2X3X4X4X4X5X6X6X6X6X6X6X7X8X9X9X9X9X0XqXqXwX9X9X9X9X9X9XrXtX",
"$ # yXuXiXiXiXiXiXiXiXiXiXiX: : : : : : : pXpXaXsXsXsXsXsXdX+   fX: yXuXiXiXiXiXiXiXiXiXiXiX: : : : : : : pXpXaXsXsXsXsXsXsX@ 2 ",
"* = gXo . O O O O O O O O O O O O O O O . o o hX+ + + + + jXkX, < 1 gXo . O O O O O O O O O O O O O O O . o o hX+ + + + + jX2 3 ",
"4 5 = 6 . O O O O 6 8 6 6 6 6 6 6 6 6 O . o X X + + + + : 2 r t y 5 = 6 . O O O O 6 8 6 6 6 6 6 6 6 6 O . o X X + + + + : 2 r t ",
"u 4 i p 1 1 1 1 1 a a a s s s s d d d f f f f f f f g g h j t k u 4 i p 1 1 1 1 1 a a a s s s s d d d f f f f f f f g g h j t l ",
"z z z x c v v v v b n n m M M M M N B N N N N N N N N V c C k k z z z x c v v v v b n n m M M M M N B N N N N N N N N V c C k k ",
"z z z Z N c c c c c c A S S D F F F G H H H H H H H H H N J k k z z z Z N c c c c c c A S S D F F F G H H H H H H H H H N J k k ",
"z z z K N c c c c c c c A S S S D F F F G H H H H H H H N C k k z z z K N c c c c c c c A S S S D F F F G H H H H H H H N C k k ",
"z z z K N c c c c c c c L c A A A A A P I U U Y H H H H N C k k z z z K N c c c c c c c L c A A A A A P I U U Y H H H H N C k k ",
"z z z K N c c c T R E W W W W W W W W W Q Q ! ~ v ^ H H N C k k z z z K N c c c T R E W W W W W W W W W Q Q ! ~ v ^ H H N C k k ",
"z z z K N c c c / ( ) _ _ _ _ _ _ _ _ _ _ ` ' ] v ^ H H N C k k z z z K N c c c / ( ) _ _ _ _ _ _ _ _ _ _ ` ' ] v ^ H H N C k k ",
"[ { z K N c c c } |  ...X.o.o.o.o.o.o.o.o.O.+.@.#.$.$.H N C k k %.{ z K N c c c } |  ...X.o.o.o.o.o.o.o.o.O.+.@.#.$.$.H N C k k ",
"[ &.*.=.-.c c c ;.:. .:.o.o.o.o.o.o.o.o.o.O.>.,.#.<.<.$.N C k k 1.&.*.=.-.c c c ;.:. .:.o.o.o.o.o.o.o.o.o.O.>.,.#.<.<.$.N J k k ",
"[ &.2.3.-.c c c 4.:. ...o.o.o.o.o.o.o.o.o.O.>.,.#.5.<.<.N C k k %.&.2.3.-.c c c 4.:. ...o.o.o.o.o.o.o.o.o.O.>.,.#.5.<.<.N J k k ",
"[ &.2.=.N c c c 6.:. ...o.o.o.o.o.o.o.o.o.v +.,.#.S 5.<.N C k k %.&.2.=.N c c c 6.:. ...o.o.o.o.o.o.o.o.o.v +.,.#.S 5.<.N J k k ",
"[ &.7.x N c c c 6.:. ...o.o.o.o.o.o.o.o.o.v 8.,.c 9.S <.N C k k %.&.7.x N c c c 6.:. ...o.o.o.o.o.o.o.o.o.v 8.,.c 9.S <.N J k k ",
"[ &.7.x N c c c 6.:. ...o.o.o.o.o.o.o.o.o.v +.0.c 5.S 5.N C k k %.&.7.x N c c c 6.:. ...o.o.o.o.o.o.o.o.o.v +.0.c 5.S 5.N J k k ",
"[ &.7.x N c c c 6.:. ...o.o.o.o.o.o.o.o.o.v +.q.c c c S N C k k %.&.7.x N c c c 6.:. ...o.o.o.o.o.o.o.o.o.v +.q.c c c S N J k k ",
"[ &.7.x w.c c c e.:. ...o.o.o.o.o.o.o.o.o.v +.r.t.A c c -.C k k %.&.7.x w.c c c e.:. ...o.o.o.o.o.o.o.o.o.v +.r.t.A c c -.J k k ",
"[ &.7.x y.L c #.u.:. ...o.o.o.o.o.o.o.o.o.i.p.a.s.c c c d.J k k %.&.7.x y.L c #.u.:. ...o.o.o.o.o.o.o.o.o.i.p.a.s.c c c d.J f.k ",
"[ &.7.g.y.h.c #.u.:. .:.o.o.o.o.o.o.o.o.o.j.8.r.v c c c k.J k k %.&.7.g.y.h.c #.u.:. .:.o.o.o.o.o.o.o.o.o.j.8.r.v c c c k.J f.k ",
"[ &.l.g.i.z.L #.u.:. ...o.o.o.o.o.o.o.` x.j.+.c.v c c c k.J k k %.&.*.g.i.z.L #.u.:. ...o.o.o.o.o.o.o.` x.j.+.c.v c c c k.J f.k ",
"[ [ v.b.v z.h.i.n.m. .o.o.o.o.o.o.o.` M.N.j.8.B.v c c c c J k k 1.V.v.b.v z.h.i.n.m. .o.o.o.o.o.o.o.` M.N.j.8.B.v c c c c J f.k ",
"[ [ 1.C.v Z.z.i.A.S.D.K F.x G.G.G.H.J.H.` ` K.L.v c c c #.C k k 1.[ 1.C.v Z.z.i.A.S.D.K F.x G.G.G.H.J.H.` ` K.L.v c c c #.J k k ",
"[ [ [ P.v o.z.v I.U.U.U.Y.Y.Y.T.T.T.Y.T.T.U.R.N Z.c c c b C k k 1.[ [ P.v o.z.v I.U.U.U.Y.Y.Y.T.T.T.Y.T.T.U.R.N Z.c c c b C k k ",
"[ [ [ P.v o.z.i.E.W.Q.Q.Q.!.!.!.!.!.!.f g g f !.-.c c c b C k k 1.[ [ P.v o.z.i.E.W.Q.Q.Q.!.!.!.!.!.!.f g g f !.-.c c c b C k k ",
"[ [ [ P.v o.Z.z.~.^.^.Z.Z.Z.Z.Z.Z.Z.Z.Z.Z.Z.Z.Z.c c c c b C k k 1.[ [ P.v o.Z.z.~.^.^.Z.Z.Z.Z.Z.Z.Z.Z.Z.Z.Z.Z.Z.c c c c b C k k ",
"[ [ /.(.v o.o.Z.N.N.N.c c c c c c c c c c c c c c c c c b C k k 1.[ /.(.v o.o.Z.N.N.N.c c c c c c c c c c c c c c c c c b C k k ",
"[ [ )._.v o.s.Z.i.`.L L A c A c c c c c c c c c c c c k.b C k k 1.[ )._.v o.s.Z.i.`.L L A c A c c c c c c c c c c c c k.b C k k ",
"[ [ /.'.].].].].].Z Z ..m.m.m.m.m.m.m.m.m.m.m.m.m.m.m.s.o.C k k 1.[ /.'.].].].].].Z Z ..m.m.m.m.m.m.m.m.m.m.m.m.m.m.m.s.o.C f.k ",
"[ &.[.{.}.}.}.}.|.|.lX X X X.XXXoXoXOXOX+X@X@X@XOXOXOXOX#X$X%X&X%.&.[.{.}.}.}.}.|.|.lX X X X.XXXoXoXOXOX+X@X@X@XOXOXOXOX#X$X%Xk ",
"&.[.{.}.}.}.}.}. X X X X X X;XoX#X#X#X#X+X@X@X@X#X#X#X#X#XzXxXcX[ [.{.}.}.}.}.}. X X X X X X;XoX#X#X#X#X+X@X@X@X#X#X#X#X#XzX$X%X",
"vXbX|.}.}.}.}.|. X X X X X XnX#X#X#X#X#XOX@X@X+X#X#X#X#X#X#XmXMXvXNX|.}.}.}.}.|. X X X X X XnX#X#X#X#X#XOX@X@X+X#X#X#X#X#X#X#X$X"
};
