/* XPM */
static char *_923a6c260274b1ec13f91b9978b56b2YBSAh8GtroCkUDoi[] = {
/* columns rows colors chars-per-pixel */
"64 64 241 2 ",
"   c #22221B",
".  c #3B392C",
"X  c #3D3B33",
"o  c #33282B",
"O  c #433B33",
"+  c #443C39",
"@  c #463C31",
"#  c #3E4132",
"$  c #44422E",
"%  c #454433",
"&  c #45433B",
"*  c #4C4B3D",
"=  c #484837",
"-  c #514D3D",
";  c #54463A",
":  c #52513D",
">  c #4D513F",
",  c #4C3F42",
"<  c #4D4343",
"1  c #4D4B43",
"2  c #484943",
"3  c #544D42",
"4  c #5B4B48",
"5  c #535343",
"6  c #5B5545",
"7  c #5A5C45",
"8  c #53534B",
"9  c #5A534A",
"0  c #5D5D4A",
"q  c #565945",
"w  c #5B5A54",
"e  c #4E4F49",
"r  c #625A4C",
"t  c #655A54",
"y  c #644D4E",
"u  c #5E614D",
"i  c #69674E",
"p  c #646454",
"a  c #6C6B55",
"s  c #6C6B5A",
"d  c #6A6558",
"f  c #736D5A",
"g  c #756A57",
"h  c #6E7056",
"j  c #737354",
"k  c #74735D",
"l  c #7D7C5C",
"z  c #7B765B",
"x  c #74704A",
"c  c #6C6C65",
"v  c #6C6C6B",
"b  c #6B6568",
"n  c #726D64",
"m  c #746C6B",
"M  c #7A6D6C",
"N  c #7D6864",
"B  c #747265",
"V  c #7B7563",
"C  c #7C7B63",
"Z  c #74736B",
"A  c #7C746B",
"S  c #7C7B6B",
"D  c #767867",
"F  c #6C6D70",
"G  c #7C7C72",
"H  c #7D7E7C",
"J  c #797678",
"K  c #737070",
"L  c #837B5D",
"P  c #85775C",
"I  c #8A715A",
"U  c #846D6C",
"Y  c #866E67",
"T  c #827465",
"R  c #837D64",
"E  c #8A7B66",
"W  c #83746B",
"Q  c #8B756B",
"!  c #847C6B",
"~  c #8B7C6C",
"^  c #8B7364",
"/  c #927D6C",
"(  c #93756C",
")  c #8A6D71",
"_  c #837572",
"`  c #8A7471",
"'  c #837C73",
"]  c #8B7C74",
"[  c #847B7C",
"{  c #8B7C7B",
"}  c #927C73",
"|  c #937C7B",
" . c #997C77",
".. c #916F6B",
"X. c #A57E7C",
"o. c #7E805B",
"O. c #7E806B",
"+. c #7F8164",
"@. c #7F817B",
"#. c #7E8177",
"$. c #82815D",
"%. c #838365",
"&. c #8C8365",
"*. c #8B8A65",
"=. c #84836B",
"-. c #8C836C",
";. c #86896C",
":. c #8D8C6C",
">. c #93836D",
",. c #928C6C",
"<. c #99876A",
"1. c #8F916C",
"2. c #93926D",
"3. c #9A936D",
"4. c #969469",
"5. c #848374",
"6. c #8C8373",
"7. c #8D8B73",
"8. c #84837B",
"9. c #8C847B",
"0. c #8D8B7B",
"q. c #868977",
"w. c #938473",
"e. c #9B8475",
"r. c #938C73",
"t. c #9A8C74",
"y. c #93847B",
"u. c #9A847B",
"i. c #938C7B",
"p. c #9C8C7B",
"a. c #8F9273",
"s. c #8D917A",
"d. c #949373",
"f. c #9B9374",
"g. c #9A9A75",
"h. c #94937C",
"j. c #9B947B",
"k. c #96997C",
"l. c #9C9B7B",
"z. c #969875",
"x. c #A2847C",
"c. c #A28D7C",
"v. c #A68A77",
"b. c #A3947D",
"n. c #AB947C",
"m. c #A29C7D",
"M. c #A59878",
"N. c #AA9470",
"B. c #9EA17C",
"V. c #A4A37D",
"C. c #A8A77E",
"Z. c #B5A87E",
"A. c #7E7E80",
"S. c #8A7E82",
"D. c #947F80",
"F. c #A57D82",
"G. c #848482",
"H. c #8C8483",
"J. c #8D8C83",
"K. c #8E8D8B",
"L. c #888788",
"P. c #948583",
"I. c #9B8481",
"U. c #948C82",
"Y. c #9B8B83",
"T. c #938D8C",
"R. c #9A8D8B",
"E. c #958689",
"W. c #8E9184",
"Q. c #8F9089",
"!. c #949383",
"~. c #9B9483",
"^. c #9C9B83",
"/. c #94938B",
"(. c #9B928B",
"). c #9C9A8B",
"_. c #969988",
"`. c #968F92",
"'. c #949492",
"]. c #9C9592",
"[. c #9C9C93",
"{. c #969990",
"}. c #8E8D92",
"|. c #A38C82",
" X c #AA8E84",
".X c #A58987",
"XX c #A49383",
"oX c #AA9384",
"OX c #A49C83",
"+X c #AA9B84",
"@X c #A3948B",
"#X c #AB948B",
"$X c #A49C8B",
"%X c #AB9C8B",
"&X c #B29C8D",
"*X c #B49889",
"=X c #A49592",
"-X c #AC9593",
";X c #A49C94",
":X c #AB9B92",
">X c #A69899",
",X c #B29492",
"<X c #B49C92",
"1X c #B89694",
"2X c #B08E90",
"3X c #9FA185",
"4X c #9EA08A",
"5X c #9DA093",
"6X c #A4A382",
"7X c #AAA384",
"8X c #AAAA84",
"9X c #A4A38B",
"0X c #ABA48B",
"qX c #A6A88A",
"wX c #ACAB8C",
"eX c #A6A984",
"rX c #B2A38C",
"tX c #B4AC8E",
"yX c #B8A787",
"uX c #B3B38D",
"iX c #B5B88D",
"pX c #A4A492",
"aX c #ABA493",
"sX c #ACAA94",
"dX c #A8A79A",
"fX c #B4A492",
"gX c #BAA494",
"hX c #B4AC93",
"jX c #BAAC93",
"kX c #B6A99A",
"lX c #B4B393",
"zX c #BAB495",
"xX c #B6B992",
"cX c #BABB94",
"vX c #B9B69A",
"bX c #AEB18D",
"nX c #B3B2A5",
"mX c #C0BB98",
"MX c #BFC19A",
"NX c #C1C19C",
"BX c #C4C2A0",
/* pixels */
"!.!.OXoX-X+XXXU.!.G.h.=.=.=.G.r.j.OX(.w.!.$X-X0XxXlXpXeXeXl.).[.].oXXX^.eX~.^.~.Q./.G & %.8.!.h.OX).OXm.!.!.%XlXcXuXeXqXeXeX).~.",
"i.h./.b.XX-X!.!.s.i.0.d.-.>.h.0.p.=X].l.~.0XpX0XfX0XOXzXzXgXhX!./.R.(.,XrXgX:X'.!.).S * l.].'.>XjXlX;XaXdXvXsXlXaX9XeXtXhX%Xl._.",
"i.h.h.h.b.l.z.W T A _ ,.G 8.>.w.] i.d.W.(.hXfXsXrX$XXXoXn.XXh.3.XX9X[.6X7XOXr./ 5.i.C + h.] W @.w.w.9.G R l.wX,X.Xk.l.j.t.2.f.^.",
"H H [ c.9X$XOXh.[ 6.i.0.7.l.t.:.9XtX#XqX6XV.m.3X[.m.x.p.N.3.t./ / oXB.6X6X$Xj.-.S 9.k X G.U.Q &.j.l.t.i.Y.XXb.<.>.q.7.b.d.h.U.I.",
"8.H ! w.>.y.w.-.C L =.S C d.r.f.C.8Xp.XX%XZ.qX7Xp.e.} >.e.f.>.i.e.y.f.:.p.j.U.-.=.q.k & K.9X3Xl.qXzX$XOXkXkXsXwXsXeXg.3.:.5.Q Q ",
"2 8 7 7 1 & = q 7 7 7 q 8 8 p N A f w p 4 0 7 4 6 s w % 5 * * w e 1 1 1 - 3 u r t p 8 % r 0 5 0 s s t r 8 : 8 5 9 t p p p 5 5 : ",
"%.z.h.6.{ U.~.H.w.| 0.h.3Xh.j.6X6X3XrXaXfX0X:.7.s.6Xt.Y n c Z z.r.>.:.i.+ s l.' ) ' r.t.i._.l.c.%Xl.@X:X).!.9.g L p.=Xr.U.7.B d ",
"Q /.6.s 8.;X^.h.} ( / >.2.,.,.,.7.~.fXaXaX;X!.{._.,.A &.].!.J r.3.a.:XfX> D oXI.%.%.=.U.oXc.p.w.l.7X|.T S } 9X0Xb.d.>.n M :.>.=.",
"! 7.M s =.h.*.6.9.=.t.>.Q t.f.t.r.OXj.&.! q.i.G ~ L c G 5.-.0.XXt.=.Q r.% a ! u.6.%.9.x.y.~.x.l -.x.x.>.R =.j.wX7X+X%.l ! :.-.-.",
"5.%.H H.^ B 6.,.r.! ,.=.c y.u.y.d.m. Xx.t.w.t.C R ,.%.J.q.W A j.hXOXOX+X: C y.5.l N ) ! c s.,.:.,.e.|.*XoXw.&.:.8X0XuX-.l t.:Xi.",
"T././.!.!.&.5.cXzX0X2.-.M M S ] r.4.~.kXkXW ,.>X_.z.h.C d.z.-.U aXcXhXNXi _ 5X3.2.m s a c M W -.1.2.b.XXgX1X&X+Xp.h.0X2Xh.f.0X$X",
"C H D ! A ;.2.V.OXf.m.OX%XrX_.aXU.l.w.q.l.U.t.i.{ C l l ,.Z v L.-X%Xf.7XO x l.2.i.{ +.%.' 5.H.OXC.b.d.d.k.j.l.XXt.p.s. .p.Y.@.A ",
":.=.,.1.7.0.z.j._.9XC.8XxXqX6Xh.r.P.~.H.w.~.b.w.G S 8.h.D Z !.;XlX9X7.-.= R cXiXsX]./.!.!./.pXsXsXpX+XoX6XeXeX+Xz.P.h.(.@X5.D S ",
"-.,.6.1.r.r.w.! W ] -.:.%.7.~.] 1.r.*.S S d.2.3.^.-X!.h.6.OXn.t.d.V.;.z.X a 7.7.&.W M Q ,.^.p.=.h.y.@.c.] j A | O.S a b v n n m ",
"&.&.%.C L d.R.-.-.5.5.e.oXj.i.y.h.:.T :.~.<X%X%X0X!.,X<X,XXX|.(.$Xp.!.!.5 W ].-.S 6.1.d.2.j.I.8.>.7.i.y.S l C A T z L R %.E -.r.",
"j.v.v.p.R :.j.0.-.%.w.b.oXp.] %.=.W S r.*X:Xd.C S :.>./ r.:.E x L ( R S + t %.S ] !./.).E.i.&.6.U.d.E ] i.,.w.w.-.G.H.f.:.l.^.l.",
"+XXX$Xm.j.b.x.-.E *.:.k.2.r./ :.&.,.U.I.c.u.5.{ S h.l.Y.&X6Xb.b.b.b.:.p.< t i.Y.6.8.h.r.V q.h.Q G 8.5.=.,.,.,.7.:.*.U.Y.6.s.6.|.",
"c.c.B.V.m.%.&.e.XX_.).rX).!.z.~.d.m.V.wX~.+XXXI.y.:.%.%.-.t.t.z.h.7.7.l.2 s =.w.H.G.p.X.0.5.A | ' ! d.t.W W Q 8.|.U.9.w.5.y.9.| ",
"9.P.h.:.z.7.7.d.h.).(.p.d.!.h.h.d.f.).dX:X:X#X~.j.0.J.K.K.T.:XaXj.!.H.'.8 k d.7.j.~.!.| p.u.p.6.[ [ ~.9Xh.J.!.~.XXh.!.j.K.Y.p.V.",
"J.!.(.} 0./._._.^.9X=X-X=Xj.b.@X(.(.0.i.d.(.@XlXgX!.J.U././.'.~.2.1.h.=X0 _ [.(.~.1XfX<X-X=XzX:X-X<X(.0.h./.W.b.fXiX:X_.,.j.0XlX",
"d.! S v c f %.R i.p.x.j.2.2.>.>.2.A A >.-.5.f.j.OXh.5.Q ..,.,.6.d.-.>.f.& g i.~.#XXXd.d.%.h.y.~ -.T Q A z $.,.,.l.gX#Xj.2.>.t.r.",
"'.W.-.U Y / 7.r.W.i.i.s.2.b.m.d.d.,.r.3.,.J.h.1.r.d.i.:.2.h.Q -.:.2.,.3.4 Y z.%X1Xb.d.!.|.wXbXlX(.7.2.7.-.1.2.r.%X1XfXrXhX*X&XkX",
"U.2.2.4.7.S q.d.d.d.d.2.Y.XXqXg.0.7.a.-.,.h.l.d.2.3.,.r.h.d.h.h.h.7.h.h.& k ).:X=Xh.f.j.OXwXjX6X!.'.'.7.z.h.:.7.^.XXXXz.%X2X+X6X",
"pX^.!.!.'.}.9XlX'.'./.=XkXqXeXqXqXaXpXpX;X(././.$XiX9XK./././.'./.6X/.).& k 8XpX;X'.!.9XiXaXzXwX6XwXdXeX'.G.G.j.6XpX).6XnXvXwXpX",
"C.!.J U.^.<XlX%XT.J. .| h.m.m.m.h.b.eXXX5._ n B W j.s.6._ ) ` T %.!.8.9.9 r.MXwX#X`.].@X0XC.0XpX^.C.C.0X!.!.}.`.tXzXpX0XtXC.C.V.",
"h.0.S -.r.y.7.=.=.q.|.i.h.V.V.l.l.l.9X6X=.7.w.H.!.>.-.6.E V n E S T j Z O d d.:.=.q.r.=.! r.,.r.m.l.g.i.7.-.6.6.y.eXj.f.n.f.f.u.",
"i.J.8.l -.h.*.z f q._.h.i.OXOX+Xg.~.,.S T W y.' ;.E -.d.%.E R l d.h.i.~.- g (.p.6.r.0.5.$.%.v.v.r.%.$.+.S ! w.P.k.aXwXm.XX6Xw.u.",
"V.XX@X3.:.,.c.f.I g ^ C ] /.m.4.,.( ^ C =.=.W s B f >.p.%.=.R j $.D ` g.O i 6XwXV.7X0X9Xl.r.sXsXh.,.-.8.&.Q Q ' Y C ~ Q w.%X;XtX",
"vXrXyXcXjX#XjXmX*XV.m.7XXX^.m.OX9.R.=Xg.d.G R ! r.g.eX8Xm.j.+Xj.OXy.<.7X* g jXlXl.xXjXf.2.3.OXqX4X).^.r.' q.R g 6.^.<Xf.z.+X7X8X",
"1 5 - 3 6 ; $ 4 6 = ; % @ % O O O O % X < , * * # < 9 q 3 - - - p 4 ; q o % 0 1 * 0 ; = = = % . . . $ . & 8 w % # O - 7 8 % $ & ",
"r.Y..X .r.OXXXr.oX@XW.' P N s z A ] r.5.6.} _ G L C ! ] { [ [ =.O.S.|.XX+Xj.j.d.>.p.F.w.7._.r.7.8.L.C =.7.7.d.9.5.g o ' y. .y.w.",
",XoXr.&.e.t.e.n.|.{ l T W w.oXXXT C P R *.h.D s ! %XW / f.t. .T Y Q x.,X-Xj.n.*X<.R N U Q 6.i.~.G n j j x k V a ] V & k.j.p.p.@X",
"3.2.e..Xc.z >.oXf.u.R =.:.!.T./.f.7.=.Z c W r.i.D R.U.w.eXfXY.r.>.Q U l.XXf.#X*XXXr.=.=.h.j.2.3.8.C x k V A 5.G i.=.0 %Xu.6X|.2.",
"p.6.u.9.U.+XV.u.f.+Xu.I.] ] A 6.>.$.W 8.r.=.{ 7.$.W $Xm.(.|.d.7.=.W w.|.OXm.XXM.t.t.f.w.6.6.! o.5.5.S G ! C Z =._ t & kXaX-X@X0.",
"} 5.! w.l.z./ t.j.&.X. X9.} } } _ E $.W R 6.H.S W W >.r.>.7.~.i.p.p.y.-.2.:.d.~.u.b.OXp.,.c.X.i.A b F m s v S Z %.f + OXw.A w.q.",
"'.!.0.i.j.uXfX8Xn.e.t.:.-.| } >.Q W &.;.{ [ O.7.i.i.).l &.d./.~.f.z.,.~.!.+XXXs.4.d.h.1.,.} @X%Xj.Q n M G o.z U f.7.8 {.5.T 0.'.",
"J.J.G ] X.i.C.7X>.t.v. .<.>.u.j.-.G -.7.e.%.l V 6.w.>.B ~ ,.,.,.C 8.3.2.(. Xn.,.2.2.2.d.r.:.d.k.*.d.6.-.=.C ! ] p.8.- (.G N J.!.",
"' ' ;.5.^.R.w.l 7.|.6XXXn.d.w.|.~.i.:.f.f.r.l.XXXXr.~ @.-.y.a.6.' -.,.! w.,.j.XXd.z.b.+X+X Xu.C u.h.w.Y.j.@X~.V.+XV @ u.:.7.P.9.",
"] ] 9.i.9.r.u.9.i.^.l.r. .OXw.A / &.-.r.w.t.w.i.V.+Xr.R 6.| y.y.y./ :.~  .e.u.x.u.l.B.j.] w.{ S ' G S j.V.i.l.d.B.L @ t./ O.S ] ",
"R ! S B n j T y. .v.m.c.{ ] u.9.5.%.5.>.w.t.<.( ,.2.T M A m y.p. .F.+Xv.,.,.,.1.t.XXb.X.' %.,.6.~ S S p.m.b.fXm.8Xr.- z.r.J.Q.%.",
"=.i.6.~ / w.,.s.f.v.fXjXXX1.u.| i.h.j.f.p.m.0Xv.*Xd.&.~ >.:.d.j.N.XX#X%X!.1.,.7.t.|.*X<Xj.,.=.,.z.d.f.oXg.j.c.<.M.E = &.! } 7.,.",
"H.] -.r.| h.!.l.C.pXqX^.H.I.u.| r.t.XX6XV.V.9XbXzX+Xy.G.i.5.h.j.XX0XeXeX9Xb.6X$Xb.b.%X~.k.y.w.d.d.w.U.+Xg.f.XXeX+X^ ; -.! ].XXU.",
"0.2.d.!./.0./.gXjXfXhXlXlXlX:X1Xj.!./.].jXzXlXpX;XR.h.h.d./.!.U.-XeXeXfXjX1XfXgX,X1X#Xn.-X<Xb.1.:.h.U.W.R.2X%XwX&X} 5 i.j.oXc.!.",
"f K c d f T A Q ~ <.2.g.n.OXf.m.6.i.i.2.d.b.d.( U M n a 0 t N Q ~ L =.-.! -.r.u.( -.2.E f.N.N.2.! W R ] i.d.r.r.t.g X L k h L Q ",
"~.].r.w.>.i.|.eXn.n.*X1XjXgXyXn.oXd.~.<XgX<XgX@XOXt.( ! m m w.f.j.+XaX>XXXoXjX#Xl._.m.g.jXmXzXgXyX#X+XrX+Xj.-X@X&XS 8 l.z.2.d.2.",
"; 3 < 6 q 2 8 0 w t y y s 0 7 6 3 8 & r < r : & 3 ; & $ $ & 5 : 6 4 w 8 5 < 3 5 : 5 ; - 6 5 q 8 3 < < 9 * = = % 2 X   = $ % $ $ ",
"XXr.d.r.y.7.s.6.h.7.r.b.7X^.^.i.h.J.8.^.OX(.h.q.8.0.6XB.^.U.T.R._.h.j.!._.j.! S @.G.y O d.,.h.5.G.G.8.0.6X$X' 8.Y.(.j.h.U.d.J.h.",
"eXeX8X+Xy.p.u.L r.,.i.7X+X$Xh.h.).{.j.Q XXp.6.5.6.g.7X+XXXsX9X5X3Xm.i.j.V.b.(.u.y.L.Z 6 U.r.e.9.9.i.r.q.8.{ 0.p.w.>.h.!.d.d.;XlX",
"j.m.z.d.;.p. X2.r.] T R ! ;.!.m.7.=XOX! l.XX! S U v.@Xi.&XM.l R A R %.S ! 2.8.9.N E p X z.*.&.Q Q ^.=.a 5.r.,.] 7./ r.5.n E -.x.",
"1.2.l.y.t.<.j.;XpXd.<.g.,.-.!.| h.lX2.$XaX$Xh.j.R V 7.U.c.R ^ ^ L P R ' 6.+.a j j g u + &.z l w.] D j L 5.S C k k j B k Z -.r.l.",
"Q 6.T s M } .X_.5.| U.;.E Q h.r.z.lXuX6Xp.l.b.y.S S 5.=._ v G *.%.+.S S.i.! q.U.OXdXG * wX*.$.R } L &.2.H S S l -.*.a R W ^.zXm.",
"tX@X}.J.Q./.!.h.h.qXOXV.6X9XqXlXnXdXdX[.!.!.!.!.:.=.8.0.H A.H q.H J 8.h.-.Q q.d.J.hXi.q kXh.h.3XwXOXi.h.C =.C ~ OXpX$X^.V.+XhXlX",
"[.'.!.!.!.'.'.;XdXdXlXzX;XpXeX9XdX9XpX;X;XdXpX!.d.A v n b b v b n B ! d.3.2.2.2.2.l.J.p lX].}.aXcX;X<X$Xh./.!.$XvXnXnXzXhXaXlXcX",
"U.G.7.-.{ -.] 9.b.0.^.@XU.~.$XlXcXxXcXzXzXcXcXlXzXaX/.H.H.J.i.8._.8X+XrXhXjXzXhXxXaX9.r >X/./.:XaXfXfXj.J.!.s.r.+XwX+XrXuX6XC.7X",
"| =.E C V N M u.Y B V R p.,./ 9.9.9.-.r.0.l.l.-.j.Y.[ @.G.S.D.u.h.B.p.{ C R c.uXwX*XT 3 t.&.' ` ..&.R K V L XX&.u.$X/.p.b.p.r.f.",
"] E $.=.5.R j.%XE L w.%.f.j.U.[ =.P.0.~ p.V.z.0.-.Q D C %.! ! ] >.5.V z C =.p.eXj.b.h < l.t.{ 9.] R 7.i.OX!.~.7.^.~.i.j.+Xb.t./ ",
"b.8.q.q.' ` g.j.f.z.j.g.e.Q E r.U.I.q.7. XfX0Xj.h.8.5.! l =.G Z ` d.r.7.h.6XhX1XgX8X5.7 BX:X}.OXh.>.! Q m.OXB.[ ~.9X7.d.f.i.~.n.",
"d.J.{ Y.R.$XwXc.i.6Xm.V.^.J.g.r.6.u.pX9Xl.j.XXG.g.^.6XG.H S m m B d.'./.F 7.lXzXtXhX7.u zXY.7.7.7.aX6XOXt.a.7.! ' f.j.OXC.~.@.1.",
"!.9.I.|.J.6XqX3Xm. Xp.&X$X~.XXi.!.fXe.z.@X%X6X^.%X#Xf.8X<X(.y.r.~.'.T./ M A r.8XlXmXz.w zXjXXXW e.XX%XgX,X-X1X@X@X%XrX0X%XqXT.!.",
"~.6.-.r.u.I.f.3.l.XX;X(.6.q.{ =.=.p.XXb.oXr.,.6.@X9Xj.b.c.] y.9.8.~ S ! -.l.B.r.W q.h o Z O.=.V z T h.} ,.2.,.E 6.Y.6X Xu.,.E w.",
"e.e.4.f.u.w.t.,.w.E.9.#.+.! >.:.,.:.~ >.2.j.r.#XOXXXXX6X X9.i.0.i.w.8./.!.OX8XU.y.U.n * 9.#.K.q.z.d.U.XXOXeXOXg.j.e.p.OXm.j.t.t.",
"2.t.+XB.m.f.2.i.U.Y.J.:.&.:.,.r.r.r.w.>.P >.<./ i.Y.c.!.d.i._ ` |.j.j.l.U.m.7.8.z.g.k X E.9.h.i.~.oXXX$X9XV.6X9X0Xm.rX9Xg.2.<.w.",
"].hXlXvX0Xm.U.u.!.U.!.h.h.!.'.)./.(./.~.$X1XgXrX0XxXiXaX~.i.U.h.w.!.i.j.C.k.J.Y.J.!.D & -.0.h.!.P.P.P.y.Q._.wXwX9XhXlXaX=X/.'.'.",
"(.d.l.eXeX6X!.i.J.W.5.8.G.!.!.h.h./.J.~.~.~.eXeX9XqX0XsX6X_.!.^._./.^.).dX'.'.'.!./.b + _.!.'.U.!.!.'./.!.!.eXgX&XC.XXoX~.W.~./."
};
