/* XPM */
static char *_6ad46a7ad9f4894866d6ae1d36b66ca[] = {
/* columns rows colors chars-per-pixel */
"64 64 209 2 ",
"   c gray24",
".  c #444444",
"X  c gray26",
"o  c #484848",
"O  c gray29",
"+  c #4C4C4C",
"@  c #505050",
"#  c #494949",
"$  c gray31",
"%  c #4C4C4D",
"&  c #4E4E4E",
"*  c #4B4B4B",
"=  c gray28",
"-  c #434343",
";  c #414141",
":  c #414140",
">  c #373737",
",  c #3C3C3C",
"<  c #393939",
"1  c #515151",
"2  c gray32",
"3  c #504F50",
"4  c #504F4F",
"5  c gray30",
"6  c #555555",
"7  c #535353",
"8  c gray33",
"9  c #4B4B4C",
"0  c #464646",
"q  c gray27",
"w  c #3F3F3F",
"e  c #414241",
"r  c gray25",
"t  c #3A3A3A",
"y  c #494A4A",
"u  c #4B4A4A",
"i  c #323232",
"p  c gray17",
"a  c #282828",
"s  c #2A2A2A",
"d  c #2C2C2C",
"f  c #2D2D2D",
"g  c gray18",
"h  c #353535",
"j  c #232323",
"k  c gray10",
"l  c gray7",
"z  c #131313",
"x  c #161616",
"c  c #191919",
"v  c #181818",
"b  c gray9",
"n  c #202020",
"m  c #2F2F2F",
"M  c #3A3A39",
"N  c #3E3E3E",
"B  c #535454",
"V  c #4A4B4A",
"C  c gray20",
"Z  c gray13",
"A  c #222222",
"S  c gray12",
"D  c #272727",
"F  c gray15",
"G  c gray14",
"H  c #252525",
"J  c #242425",
"K  c #323231",
"L  c #3A3939",
"P  c #565656",
"I  c #4A4A49",
"U  c gray21",
"Y  c #1E1E1E",
"T  c gray22",
"R  c #363736",
"E  c gray19",
"W  c #313131",
"Q  c #2D2D2E",
"!  c #4D4E4D",
"~  c #1B1B1B",
"^  c #151515",
"/  c gray11",
"(  c gray16",
")  c #262627",
"_  c #252626",
"`  c #1E1F1F",
"'  c #292828",
"]  c gray23",
"[  c #464545",
"{  c #404041",
"}  c #3D3D3E",
"|  c #3A3B3B",
" . c #404140",
".. c #2C2D2C",
"X. c #484747",
"o. c #1D1D1D",
"O. c #2A2929",
"+. c #272828",
"@. c #3F4040",
"#. c #2A2B2A",
"$. c #424142",
"%. c #3F3F40",
"&. c #313231",
"*. c #454544",
"=. c #2D2E2D",
"-. c #282727",
";. c #5A5A5A",
":. c #4D4D4E",
">. c #292928",
",. c #201F1F",
"<. c #5D5D5D",
"1. c #555455",
"2. c gray38",
"3. c #383939",
"4. c #2C2B2B",
"5. c #3B3C3B",
"6. c #646464",
"7. c #585858",
"8. c #232423",
"9. c #636263",
"0. c #292A2A",
"q. c #656565",
"w. c #5A5B5B",
"e. c #5B5B5B",
"r. c #484948",
"t. c #2F2E2E",
"y. c #2B2C2B",
"u. c gray42",
"i. c gray39",
"p. c #4B4A4B",
"a. c #6D6D6D",
"s. c gray40",
"d. c #676666",
"f. c #262726",
"g. c #262625",
"h. c #262525",
"j. c #201F20",
"k. c #676767",
"l. c #686868",
"z. c #474646",
"x. c #363536",
"c. c #292829",
"v. c gray43",
"b. c #424241",
"n. c #464746",
"m. c gray45",
"M. c #3E3D3E",
"N. c DimGray",
"B. c #2A292A",
"V. c #272726",
"C. c gray44",
"Z. c #3D3D3C",
"A. c #2B2A2B",
"S. c #6F6F6F",
"D. c #3E3F3F",
"F. c #414242",
"G. c #343434",
"H. c gray36",
"J. c #2A2A29",
"K. c #282728",
"L. c #6C6C6C",
"P. c #3D3E3E",
"I. c #444544",
"U. c #3B3A3B",
"Y. c #616162",
"T. c #4A4B4B",
"R. c #454645",
"E. c #262526",
"W. c #29292A",
"Q. c #3C3B3B",
"!. c #353635",
"~. c #444343",
"^. c #646363",
"/. c gray35",
"(. c #606060",
"). c #3A393A",
"_. c #5F5F5F",
"`. c gray37",
"'. c #4C4B4C",
"]. c #49494A",
"[. c #494848",
"{. c #414041",
"}. c #272827",
"|. c gray34",
" X c #3E3E3D",
".X c #3F3F3E",
"XX c #262727",
"oX c #2A2B2B",
"OX c #575858",
"+X c #292A29",
"@X c #403F40",
"#X c #474848",
"$X c #393938",
"%X c #333332",
"&X c #6A6A6A",
"*X c #4C4B4B",
"=X c #353435",
"-X c #222121",
";X c #727272",
":X c #626262",
">X c #7D7D7E",
",X c #797979",
"<X c #5B5C5C",
"1X c #454646",
"2X c #3E3F3E",
"3X c #4A4949",
"4X c #4F4E4E",
"5X c #535253",
"6X c white",
/* pixels */
"  . X o O + + @ O O # + $ % $ & $ * O + # $ & = =   - ; : X - > , . X o O + + @ O O # + $ % $ & $ * O + # $ & = =   - ; : X X < ",
"& 1 + @ & 1 $ 2 & 3 4 5 & + $ 1 6 7 8 1 & 7 6 2 5 O 5 5 5 o + X O 2 + @ & 1 $ 2 & 3 4 5 & + $ 1 6 7 8 1 & 7 6 2 5 O 5 5 5 o 9 0 ",
"# & o # # q ;   w X X ; X e r X . . - - - ; . X t ; q 0 y o + X 0 & o # # q ;   w X X ; X e r X . . - - - ; . X t ; q 0 y o * 0 ",
"# 1 * u o r i p a s d p d f s p p p d d g d f f s h q = O O o , 0 1 * u o r i p a s d p d f s p p p d d g d f f s h q = O O = r ",
"+ 7 * $ 0 g j k l z x c k k v x x x b b x b v v n m M X O # O N # B V $ 0 g j k l z x c k k v x x x b b x b v v n m M X O # # X ",
"1 6 # # C Z A A S Z a f g g p D F F G H G G j j J d K L = = 5 r 5 P # # C Z A A S Z a f g g p D F F G H G G j j J d K L = = + q ",
"I 1 ; U G Y S G p i > T T R U C E W E m m g f p s a s Q > q 5 w 0 2 ; U G Y S G p i > T T R U C E W E m m g f p s a s Q > q + - ",
"! $ , d ~ ^ x / H a a ( a a D ) F _ D D F F H G Z Y v ` t o 5 r * @ , d ~ ^ x / H a a ( a a D ) F _ D D F F H G Z Y v ` t o + q ",
"q * N F x x / H ( a D ( ' p s a a H D s a D a a F A ~ x 0 * # - - * N F x x / H ( a D ( ' p s a a H D s a D a a F A ~ x 0 * o 0 ",
"q + - a Z F C ,   ]   N ; q = [ . X r - { w N } ] h ( j * * O - X + - a Z F C ,   ]   N ; q = [ . X r - { w N } ] h ( j * * # 0 ",
"q + ; ( S ( U t | t , w ; q = 0 . . .  .r w ] ] t > ..D $ * 5 . X 5 ; ( S ( U t | t , w ; q = 0 . . .  .r w ] ] t > ..D $ + + X.",
"X # N D ^ o.G H F F F a a ( ' ( O.s s +.a ( D D a a S o.1 + * . r O N D ^ o.G H F F F a a ( ' ( O.s s +.a ( D D a a S o.1 + O o ",
"- o @.a v S F F a s s a ( ( a ( ( s p s s p s ( #.s n Y 7 & = w $.o %.a v S F F a s s a ( ( a ( ( s p s s p s ( #.s n Y 7 & 0 X ",
"X O r d D W ] , N ; . X - . ; r X - r - ; ; ;   w w &.s 6 1 * - w O r d D W ] , N ; . X - . ; r X - r - ; ; ;   w w &.s 6 1 u = ",
"q * X E a W ] , , w X *.- X . . q 0 r r w   N   ] t =.a 6 2 $ . X + X E a W ] , , w X *.- X . . q 0 r r w   N   ] t =.a 6 2 & = ",
"[ 5 q E / Z ( D ( a ( a a D a F D ( ( a s H ( s -.G / / ;.8 $ . - & q E / Z ( D ( a ( a a D a F D ( ( a s H ( s -.G / / ;.8 & = ",
"q :.X m / j ( d d a d ( s s ( s d >.a p d p p f p ( ,.S <.8 O w - & X m / j ( d d a d ( s s ( s d >.a p d p p f p ( ,.S <.1.# X ",
"0 5 , a H W w q - X 0 # O = = & 2 5 O * o = - X N , m s 2.6 0 w . & , a H W w q - X 0 # O = = & 2 5 O * o = - X N , m s 2.6 q X ",
"= 5 3.H Z 4.< w w r ; 0 o = o 5 + O = = q X ; w 5.< f ( 6.7.o r . 5 3.H Z 4.< w w r ; 0 o = o 5 + O = = q X ; w 5.< f ( 6.7.= - ",
". # t F v / 8.F D D a D ( a H F D a a F F D F D D D Y Y 9.;.# N X O t F v / 8.F D D a D ( a H F D a a F F D F D D D Y Y 9.;.o ; ",
". o < F x ~ H a s d s ( d f p f f f f d p 0.D D ( ( Y Y q.w.o   X # < F x ~ H a s d s ( d f p f f f f d p 0.D D ( ( Y Y q.e.= r ",
"o * U F Z D >   N w - # 5 5 $ $ $ & O r.= 0 X w   ] t.y.u.i.p.  q + U F Z D >   N w - # 5 5 $ $ $ & O r.= 0 X w   ] t.y.u.i.O ; ",
"0 # > H n F > , ] ] ; . q q o o q 0 X ; ; r N , ] t g p a.s.+ w - O > H n F > , ] ] ; . q q o o q 0 X ; ; r N , ] t g p a.d.* X ",
"o # T H x c G ( a F D f.D a D ( ( D F g.H D F h.a a j.o.u.k.# N 0 # T H x c G ( a F D f.D a D ( ( D F g.H D F h.a a j.o.u.l.o ; ",
"z.. x.a b c G ( s p s ( p p ( s c.a ( s ( ( ( a s ( A A v.u.+ N . q x.a b c G ( s p s ( p p ( s c.a ( s ( ( ( a s ( A A v.u.* b.",
"X 0 h f A ( T w ; . . . q n.= # O # o - - w N N   ] < h m.l.* w r = h f A ( T w ; . . . q n.= # O # o - - w N N   ] < h m.l.O X ",
"N o t d A p > , M.; ; r X - = # O O = ; w N   , ] t T U m.l.+ r   # t d A p > , M.; ; r X - = # O O = ; w N   , ] t T U m.N.* - ",
"; *   d k S F D D a D F F D a B.a ( a a D F F H V.D j F C.N.* w N +   d k S F D D a D F F D a B.a ( a a D F F H V.D j F C.N.u X ",
"r * Z.g Y j a ( p A.( ( s a F F a F ( a ( ( a D ( s D H S.u.+ w N 9 Z.g Y j a ( p A.( ( s a F F a F ( a ( ( a D ( s D H S.u.* X ",
"  = T E y.h N   D.; r w q = . - - - - - X r r ,   w ] h a.s.o t ] o T E y.h N   D.; r w q = . - - - - - X r r ,   w ] h a.s.=   ",
"r o U E p i ] , ] ] N F.o 1 @ * # o o = . X r   t 5.> G.s.e.O , N # U E p i ] , ] ] N F.o 1 @ * # o o = . X r   t 5.> G.s.H.# r ",
"; o t f Y S a s D H D a p g E f d f f s ( J.s K.( a G G l.<.* , w # t f Y S a s D H D a p g E f d f f s ( J.s K.( a G G l.<.O w ",
"0 0 > m n G s g p s ( s a D ( ( ( D ( s ( s s p d a a D L.i.5 r . = > m n G s g p s ( s a D ( ( ( D ( s ( s s p d a a D L.i.+ - ",
"* O T E d h   ; P.N X . q q = o O # + o . = = I.N   U.> L.2.+ - o * T E d h   ; P.N X . q q = o O # + o . = = I.N   U.> L.Y.* 0 ",
"o + < E f i , N , , X T.1 2 1 1 1 @ $ * 0 - ;   ] ] U G.N.6.1 q R.5 < E f i , N , , X T.1 2 1 1 1 @ $ * 0 - ;   ] ] U G.N.6.@ o ",
"q + , m Y Z E.a a a ( ( p f s p s W.B.( s D H H F D G G 6.2.+ w - 5 , m Y Z E.a a a ( ( p f s p s W.B.( s D H H F D G G 6.2.* X ",
"0 + , W A j D a ( ( a D D D D F D F a ( a a c.a s d F H i.e.# ; . 5 Q.W A j D a ( ( a D D D D F D F a ( a a c.a s d F H i.H.# . ",
"# 5 t E g !., N   w ; - + 5 + + + & O 0 ; w   , N w t > s.e.& 0 0 & t E g !., N   w ; - + 5 + + + & O 0 ; w   , N w t > s.e.5 O ",
". * > f p i < ] ] ; ~.= 1 7 2 @ & $ & = ; N N     , T h ^./.& 0 ; + > f p i < ] ] ; ~.= 1 7 2 @ & $ & = ; N N     , T h ^./.5 O ",
"= # T f o.A F F a a a ( s p ( a ( ( s ( D a a s ( D G G (.7.5 = . O T f o.A F F a a a ( s p ( a ( ( s ( D a a s ( D G G (.7.+ O ",
"- o ).m S j a ( s ( a ( ( p s a D G F ( a D a ( s p D F _.P O q r r.< m S j a ( s ( a ( ( p s a D G F ( a D a ( s p D F _.P # o ",
". O , t.m h , r ; ; = * 5 & & 5 * * O & O = . - ; w t U `.8 O q r * , t.m h , r ; ; = * 5 & & 5 * * O & O = . - ; w t U `.8 I o ",
". O t Q p i < t ,   X = # # # # = o O o q - w N , , > G.2.8 5 q r * t Q p i < t ,   X = # # # # = o O o q - w N , , > G.2.8 5 # ",
"X o > d o.n H H F F D ( a ( a a a s p a ( ( D D a a j G `.@ '.0 N o > d o.n H H F F D ( a ( a a a s p a ( ( D D a a j G `.1 * ].",
"- 0 < d Y Z F F a ( s a ( ( a ( ( s p s s p ( ( #.s F F ;.@ o r r = < d Y Z F F a ( s a ( ( a ( ( s p s s p ( ( #.s F F ;.@ = - ",
"w = < m s i , ]   ; q = O * # = # o . q . - X w r ; t C <.2 + . , o < m s i , ]   ; q = O * # = # o . q . - X w r ; t C <.7 * o ",
"w o ] m a E ] , ] r *.O * * $ & 5 + X - - r N N , ] C p e.6 $ q , # ] m a E ] , ] r *.O * * $ & 5 + X - - r N N , ] C p e.6 & [.",
"{.O w g ~ n ( a ( }.a a a D a D D ( ( a J.H a s D H S / _.|.$ 0 N * w g ~ n ( a ( }.a a a D a D D ( ( a J.H a s D H S / _.|.& # ",
"r * N g / Z ( d p D p ( ( ( a a s D D s p s p f p s A n 6.7.* X   +  Xg / Z ( d p D p ( ( ( a a s D D s p s p f p s A n 6./.O q ",
"; O ] f a E N X N N X - . X . + @ * O + 0 X w r     C p 6.|.0 w .X* ] f a E N X N N X - . X . + @ * O + 0 X w r     C p 6.|.q ; ",
"; O ] g D d < , ]   w X q 0 # & 5 * * + 0 w N , ] t i s q./.0 w w * ] g D d < , ]   w X q 0 # & 5 * * + 0 w N , ] t i s q./.0 X ",
"w = , g / o.G XXD D ( ( oXp a a ( s p ( D D D D D D Z Y 2.|.= N   o , g / o.G XXD D ( ( oXp a a ( s p ( D D D D D D Z Y 2.OX0 r ",
"X = , g ~ Y F >.s p +Xa p d s p d d d p s ( a D ( ( Z Y i.P 0 , @Xo , g ~ Y F >.s p +Xa p d s p d d d p s ( a D ( ( Z Y i.P q N ",
"- O ] m a f t   N r r - # * $ $ & 5 O = X X N     , G.g i.|.o , r * ] m a f t   N r r - # * $ $ & 5 O = X X N     , G.g i.|.= w ",
"r #Xt f D p $X, , , w r - = + + o # . X w N ] t ] ] h W `.1 * ;   o t f D p $X, , , w r - = + + o # . X w N ] t ] ] h W `.2 O . ",
"X q G.D v v Z a a D a D a s s d d s a D F a D F a a Z H i.1 o r w 0 G.D v v Z a a D a D a s s d d s a D F a D F a a Z H i.1 = - ",
"; ; h %X( l ~ G s p p ( p p ( s ( ( ( ( ( ( ( a ( H n + s.& + r N ; h %X( l ~ G s p p ( p p ( s ( ( ( ( ( ( ( a ( H n + s.& * - ",
"; q r r q T G m t N N     N N N N w w N w   ] < U W @ &X7 = + r N 0 r r q T G m t N N     N N N N w w N w   ] < U W @ &X7 = * - ",
"b.# # = *X6 w A s C h =Xh h > U U > > h h G.E p d 1 L./.o o 5 ; w # # = *X6 w A s C h =Xh h > U U > > h h G.E p d 1 L./.o o + . ",
". + + = + @ P T v -XH F D D a a F D D ( a j n S 7 ;X;.* O # * r ; 5 '.= + @ P T v -XH F D D a a F D D ( a j n S 7 ;X;.* O # O - ",
"- + + # O 5 @ 6 |.<._.(.s.s.:Xk.a.N.L.m.>X,XS.a.,Xs.5 = o = * ; ; + + # O 5 @ 6 |.<._.(.s.s.:Xk.a.N.L.m.>X,XS.a.,Xs.5 = o = * - ",
"r = 0 * # O 5 + 2 P 8 1 6 6 2 7 6 6 P 7.;.<X/.1 @ $ + q q 1Xq t   o 0 * # O 5 + 2 P 8 1 6 6 2 7 6 6 P 7.;.<X/.1 @ $ + q q 0 q , ",
"2X+ # $ $ + 5 $ + * O = o $ $ + * O * + # 3X* # = # # o . X o   , 5 # $ $ + 5 $ + * O = o $ $ + * O * + # 3X* # = # # o . X = r ",
"C - = O 4X= + 7 $ * + + 5 1 8 $ 8 7.6 5X1 7 1 O + # O o o r . < W . = O 4X= + 7 $ * + + 5 1 8 $ 8 7.6 5X1 7 1 O + # O o o r - ] "
};
