/* XPM */
static char *_07632280c624319b74ba85eee734513[] = {
/* columns rows colors chars-per-pixel */
"64 64 147 2 ",
"   c #151515",
".  c #181817",
"X  c #171718",
"o  c #171818",
"O  c #1C1C1C",
"+  c #201F1F",
"@  c #1F2020",
"#  c #242424",
"$  c #282727",
"%  c #272827",
"&  c #272728",
"*  c #272828",
"=  c #2C2C2C",
"-  c #302F2F",
";  c #30302F",
":  c #2F2F30",
">  c #343434",
",  c #383737",
"<  c #373837",
"1  c #383837",
"2  c #373738",
"3  c #383738",
"4  c #3B3B3B",
"5  c #403F3F",
"6  c #403F40",
"7  c #464646",
"8  c #474646",
"9  c #474746",
"0  c #474647",
"q  c gray28",
"w  c #454545",
"e  c #434343",
"r  c #484747",
"t  c #474847",
"y  c #484847",
"u  c #484748",
"i  c #474848",
"p  c #484848",
"a  c #494948",
"s  c #484949",
"d  c #494949",
"f  c #4A4949",
"g  c #4A4A49",
"h  c #49494A",
"j  c #4A494A",
"k  c #494A4A",
"l  c gray29",
"z  c #4B4A4A",
"x  c #4A4B4A",
"c  c #4B4B4A",
"v  c #4A4A4B",
"b  c #4A4B4B",
"n  c #4B4B4B",
"m  c #4B4C4B",
"M  c #4B4B4C",
"N  c #4B4C4C",
"B  c #4C4C4C",
"V  c #4D4C4C",
"C  c #4C4C4D",
"Z  c gray30",
"A  c #4E4D4D",
"S  c #4E4E4D",
"D  c #4D4E4E",
"F  c #4E4E4E",
"G  c #4F4E4E",
"H  c #4F4F4E",
"J  c gray31",
"K  c #4C4C4C",
"L  c #4F504F",
"P  c #4F504F",
"I  c #50504F",
"U  c #4F5050",
"Y  c #4F5050",
"T  c #505050",
"R  c #515150",
"E  c #505051",
"W  c #505151",
"Q  c #515151",
"!  c #525151",
"~  c #515252",
"^  c gray32",
"/  c #525352",
"(  c #535352",
")  c #525353",
"_  c #535353",
"`  c #545354",
"'  c gray33",
"]  c #555454",
"[  c #555554",
"{  c #545455",
"}  c #545555",
"|  c #555555",
" . c #565555",
".. c #565556",
"X. c #565656",
"o. c #565757",
"O. c gray34",
"+. c #535353",
"@. c #585758",
"#. c #575858",
"$. c #585858",
"%. c #585958",
"&. c #595958",
"*. c gray35",
"=. c #5A5A59",
"-. c #5A5A5A",
";. c #5A5B5B",
":. c #5B5B5B",
">. c #5B5C5C",
",. c gray36",
"<. c #5D5D5D",
"1. c gray37",
"2. c #5F5F5F",
"3. c #5A5A5A",
"4. c #605F60",
"5. c gray38",
"6. c #626262",
"7. c gray39",
"8. c #646464",
"9. c #636363",
"0. c #686868",
"q. c #6A6A6A",
"w. c gray42",
"e. c #6C6C6C",
"r. c #6B6B6B",
"t. c #727272",
"y. c #747474",
"u. c gray46",
"i. c #767676",
"p. c #777777",
"a. c #737373",
"s. c #777878",
"d. c gray47",
"f. c #797979",
"g. c gray48",
"h. c #7B7A7A",
"j. c #7B7B7B",
"k. c #7C7B7B",
"l. c gray49",
"z. c #7E7E7E",
"x. c gray50",
"c. c #7C7C7C",
"v. c #808080",
"b. c #868686",
"n. c #838383",
"m. c #898989",
"M. c #929292",
/* pixels */
"> > 2 > > 2 1 2 1 4 2 1 1 1 1 1 1 3 2 2 1 1 1 1 1 1 2 2 1 1 2 1 1 2 2 2 1 1 4 1 1 2 2 1 2 2 2 2 1 2 1 2 , 1 1 2 1 2 2 2 1 2 2 2 ",
"< w n J w ^ O.O.^ ^ J J n J O.O.^ J ^ O.J J ^ ^ J O.^ O.-.O.O.O.-.-.L O.-.O.-.-.O.^ n ^ ^ n ^ -.7.O.J J -.-.^ J ^ n n n r n e 2 ",
"1 J O.O.J O.7.O.^ ^ J ^ J ^ ^ O.^ ^ ^ O.^ O.^ J O.^ J O.^ ^ O.O.-.1.O.-.1.-.-.-.O.O.O.O.O.O.1.8.8.7.1.-.-.1.-.1.-.O.O.J n J J 1 ",
"1 n ^ n n n n n n q w n n J J J w n n n J n e w n e e w w w w n J n n J n J J w w w n n ^ J J J w w J J n n n n n n n e w n J e ",
"2 J 1.J w w n n J n n w n J J n e 4 e e e e 4 e w e 4 e e e e e w w e w w e w e e w e e n n w n e 4 n n n w w w n w n w e n J e ",
"2 J 1.J n n J w n J n n J w e 4 2 > 2 2 2 2 2 2 1 1 3 2 > 2 > 2 2 2 2 2 2 > > 1 2 2 2 3 1 1 2 2 2 1 e e n n w n J n J ^ N J J w ",
"2 J -.J J J J n n n n n e 4 1 > = * = = = > = = = = * = * * * * * * * * * * = = = * * * * = = = = > 4 e n n J n J n J n w w J 1 ",
"> I >.^ n n J n n n e e 1 > = * & * = = * * * * * $ $ $ $ $ $ $ $ $ $ $ * * $ $ $ $ # $ $ $ $ $ $ = 2 e w w w w J n w n e e n 4 ",
"2 ` -.^ J J ^ ^ ^ w 4 4 1 > = #     . . . . X . . . . . . . . o . . . . . . . . . . . . . . .   . = 2 2 4 e e n n n n n J n J 4 ",
"1 ^ -.J J ^ ^ ^ J w 4 2 > > $     . O O # O O # # + O O O O # O O # @ O O O # # # O O # # @ @ O . O > > 2 1 w J ^ J J J w J ^ e ",
"1 J O.^ J J ^ J w 1 2 2 2 * . O # $ * = = = > > > > > > > 2 > = > 2 > > > > > > > > = = = = * * $ O # > > 2 4 n J n M n n ^ -.e ",
"2 J O.^ i J n e 1 > = > = O # $ = 2 1 4 e e w w n n J J ^ ^ J J n n n J y w n n w e e 6 4 4 4 1 2 = $ * 2 2 1 w n n n J w O.^ 4 ",
"> n ^ J e e 4 2 > * = * # # $ = 2 4 4 e w w n N J ^ O.-.-.O.@.O.U J n ^ J n J J J w w w e e e 4 4 2 = $ * 1 4 e n w w J n O.^ 1 ",
"2 e J n e 4 1 > * * $ O O # $ * > 2 2 1 1 1 4 4 4 4 e e e n w 4 4 e 1 e e 4 4 1 4 4 1 1 1 1 1 1 2 2 = * $ * 4 e n n J n n O.O.4 ",
"2 n J y n 4 > * $ # . . O O # $ * = * * = = = > = = > = = = = * * * = * = = * = * = = = - = = > * * * $ # O $ n ^ J J J J ^ O.1 ",
"1 J J w w 4 > * O         . # # $ $ $ $ $ $ $ $ $ $ # $ # # $ $ # # # # $ $ $ $ # $ $ $ # # $ $ # $ # # # O   * 1.-.J n n ^ ^ 1 ",
"> w J n w 4 2 *       . . # $ $ $ * $ $ $ $ $ $ $ $ * * $ * $ $ $ $ # # $ $ * % $ $ $ $ $ $ $ $ $ * * $ $ # . . 7.1.O.n n ^ ^ 4 ",
"2 w w n n 4 > * . . O # $ * = = = = = = = = = > = = > > > = = * = = * * * * = = - = = = = = = = : > > > = = $ $ q.8.O.n n J J 1 ",
"2 w n J J e 2 = # # # * > 2 2 1 1 1 1 1 4 4 4 4 4 e 4 e e 1 e 4 e 4 1 4 1 4 4 e 4 4 4 e 4 4 4 e 4 4 4 1 1 2 = = e.q.O.n n J O.1 ",
"1 J ^ ^ J e 2 > $ # * > 4 5 4 e w y n n J J ^ ^ O.-.1.-.-.1.1.-.-.1.-.4.1.-.-.1.O.O.^ O.^ ^ ^ J n n w e e 1 2 1 y.t.O.J w ^ O.1 ",
"2 n J ^ J e 1 > # # * 2 1 4 4 4 w w n w n n ^ O.1.-.1.-.-.1.1.7.-.>.1.-.7.-.-.-.O.O.^ O.J J J J n w e e 4 4 > 2 g.y.^ J w ^ O.1 ",
"2 n J J w 4 1 > O O $ > > 2 2 > > 1 2 1 1 1 4 e e e e e e e e e 4 4 e 4 e w e 4 e 4 4 4 1 1 2 1 1 2 2 2 2 > * = g.g.O.J n O.-., ",
"2 w ^ K e 4 2 = O . # $ * * * * * = * * * * = = * = = * * * * * = = = = = > = = = = = = = * = = * = = = * $ # $ g.l.O.n n O.-.4 ",
"> e J n w 4 2 > .   O # # # # # # $ $ # $ $ $ $ # $ $ # # $ $ $ $ $ $ $ * $ # $ # $ $ $ # $ $ # $ $ # $ # # O + s.k.O.n w J ^ 1 ",
"> e n w w 4 2 > . . O $ # $ $ # $ $ $ $ $ $ $ $ $ $ $ $ $ * $ & $ $ * $ * $ $ * $ $ $ & $ $ $ $ $ $ * $ $ $ O # g.y.O.m w N J 2 ",
"2 w K w e 4 2 = O O $ = = = * * = = = = = = = = > = = = = = = > = = = > > > 2 > > > > > > > > = = > > > > * $ * g.g.O.J n J J 1 ",
"> e J w e 1 > > $ * > 2 1 1 2 1 4 4 e e e w 4 e e e e e 4 4 4 e e e e w w w n e e 4 4 e e 4 4 4 4 4 4 1 1 1 > > l.l.-.^ n ^ ^ 4 ",
"> 4 w n e 2 > = * = 2 4 w n n n J J J ^ O.O.O.O.^ O.O.O.O.O.-.^ ^ O.1.O.O.O.1.-.-.^ ^ ^ J ^ n n n w w w e 4 2 1 l.y.-.^ n O.^ 4 ",
"> e n w 4 2 > = * * > 4 e e n J n n J J ^ J ^ ^ J ^ J J J ^ ^ ^ J ^ ^ ^ J ^ O._ ^ J J J n J w n w w e 4 4 4 2 1 g.y.O.^ J O.^ 1 ",
"2 w n n e 1 > = # $ * > 2 1 1 2 1 4 1 1 4 1 1 4 1 2 2 2 2 2 2 4 1 1 4 4 1 1 1 4 4 1 2 2 2 4 4 1 1 > > > > > = = g.g.-.^ J ^ ^ 1 ",
"> w J J e 1 > = O O $ * = = * = = * = * * = * * = * * $ * * * * * * = = = = * = > = $ * = = = = = $ $ = * $ $ $ g.g.O.J ^ O.U 2 ",
"> w n n e 1 > = . . O $ * * $ $ * $ # $ $ $ # # # $ $ $ $ # # # # # # # $ * # # * $ # $ $ $ $ * * $ # $ # # O # v.y.O.J ^ ^ J 1 ",
"2 w J n e 2 > = . . O $ $ $ $ $ * $ * $ $ * * $ $ $ $ $ * $ $ * $ $ $ # $ $ * $ * * $ $ * * $ * * $ $ $ $ $ # $ n.l.O.J J ^ J 2 ",
"> w ^ n e 2 = = # O $ = > = > > 2 = * * > > = = > = = = = = > > 2 2 > = * > > > > > > > = > > > > = > > = = * * v.l.^ J J J J 2 ",
"2 w J n 4 2 > = $ $ = 2 1 1 4 4 4 4 4 4 e e 5 e w w w 4 4 4 w e n J w w 4 w n e e e 4 e 4 4 4 4 4 1 1 1 2 1 > > v.g.O.J n J J 2 ",
"> n ^ y 4 > = = * * > 1 e w w n w J O.O.O.^ ^ O.O.-.-.O.-.-.1.7.8.7.1.-.-.-.-.#.O.^ J J J J J n n w e e w e 1 1 l.y.O.n n J J 1 ",
"2 n ` n 4 2 = = * * = 2 4 e e w w w J ^ J J n J O.O.O.O.O.-.O.,.1.1.1.-.O.^ ^ O.^ J J n n J M n w e e 4 4 4 2 1 v.g.O.^ n ^ J 1 ",
"> n ^ n 4 > = > $ # $ > > 2 > 2 2 2 1 2 1 1 2 1 4 4 e e e e 4 w e e e 4 4 4 4 1 1 1 2 1 1 1 2 1 1 2 2 2 2 2 > > n.l.-.J w ^ L 1 ",
"> n ^ w e 2 > > # O # $ * * * = = * * * = * = = = = = * * * * = = = = = = = = * * * * = * * * = = * * = = = = * v.g.O.J n J ^ 1 ",
"> n n w e 1 2 > . . . O # # # # $ # $ $ $ $ # # $ $ # $ # # # $ # $ $ $ $ $ $ # # $ # $ $ # # $ $ $ $ $ $ $ # # g.t.O.^ J n J 2 ",
"> n J w e 1 2 > . . . # # $ $ $ $ $ * $ * $ $ $ $ $ $ * * $ $ $ $ * $ * * $ * * $ $ $ $ $ $ # $ $ $ $ $ $ $ @ $ g.e.O.J n J J > ",
"> n J e 4 2 2 2 # O # * = = = > > > > > > = > > > > > : = = > > > > > > > > > = > > = = = = = = = > = = = = * = l.q.^ ^ w J J > ",
"> ^ I w e 1 2 > * $ * = 2 1 1 1 1 4 4 4 4 4 4 4 4 e e e e e w w w e e e e e e e 4 4 4 4 4 1 1 1 1 1 1 1 1 1 2 2 l.q.O.J n J J 2 ",
"> J I w 4 2 2 > = * = 1 4 4 e e w u n J J J J J ^ O.O.O.^ -.O.O.O.-.-.-.^ O.O.^ ^ n n n n w w w e w e w w w 4 4 y.8.O.J J ^ J 2 ",
"> n n y e 1 2 > * * = 2 4 4 e e e e w n n n N J J L ^ O.O.-.^ ^ ^ O.-.O.^ ^ ^ ^ ^ n w w w w w w e e e e w e 4 4 t.8.O.^ n J ^ 2 ",
"> n n w w 1 > = # $ $ = > 2 2 2 1 2 1 1 4 1 1 1 4 4 4 4 4 e w e 4 4 e e 1 1 4 1 1 1 2 2 2 2 2 2 2 2 2 < 2 2 > > q.7.O.n w O.^ > ",
"> w ^ e w 4 > = . . O $ * = = = = = = * = = * * * * = = = = ; = = = = = = = * * $ * * = * * * * * = * * = * $ $ q.7.O.U n n n > ",
"> n J w w e 4 >     X O # # $ $ $ $ # # $ $ $ $ $ $ $ $ $ $ $ $ $ * $ # # # # $ # $ $ $ # # $ $ $ $ $ $ $ #   . y.q.^ ^ w J J 1 ",
"> J w e w w 4 1 *     . O # $ $ $ * * $ $ $ $ * $ * * $ $ $ $ * $ $ * $ $ $ $ $ $ $ $ $ $ $ $ $ $ * $ $ # O   -.n.8.-.^ w ^ J 2 ",
"> n J e e e 4 4 1 *   O * = = > - > > > > > = = = > > = > = > > > = = > > > > > = > > : = = = = = = = * $ . -.M.g.1.O.^ J ^ J > ",
"2 J n e 4 e w e 1 2 > $ = 2 2 1 1 1 1 1 4 4 4 4 4 e e e e e w e e e e w n e 4 4 4 1 1 2 2 2 2 1 1 2 > = $ -.m.g.8.-.n w n J J > ",
"> ^ ^ n w w n J e 4 4 1 = 2 4 e e e e e w w n J J J J ^ ^ O.-.O.-.1.-.-.-.^ J n n e e e e e 4 e e 4 2 = 1.n.t.7.O.J J q t -.O.2 ",
"> ^ O.w J n w n n n e w 4 = > 2 1 1 1 4 4 w e w n n w n n J ^ J J ^ n ^ ^ n w w e e e 5 4 4 4 4 4 2 * -.l.q.7.-.O.n J n n -.^ 1 ",
"= J ^ w n J n w J J n n q 4 O $ * = = > > > = > > > > 2 2 1 1 2 2 2 2 1 2 > 2 2 2 > > > > > > = * # -.l.q.1.-._ J n n n n O.K 1 ",
"2 J O.J J J n J J ^ J J J ^ w     . O O O O O O O O O O # # $ # # O # # + + # # # # # # # # O .   -.l.8.-.^ ^ ^ n ^ J n w n n 2 ",
"> ^ O.n ^ J w J J ^ O.^ M O.1.w   . . O O O O O . . . . . . O O . O . O O O O O O O O O . O O . O.l.8.O.^ ^ ^ ^ n J n n w J J 2 ",
"> J -.n J e w J T J ^ O.^ ^ O.7.1.7.e.t.t.t.a.t.y.t.t.t.t.t.t.y.t.t.t.t.y.y.y.y.y.g.g.l.g.l.v.l.y.8.-.J ^ J J J n n w n n ^ n 1 ",
"> n ^ n J n J J J ^ ^ ^ U J -.-.7.9.8.q.q.8.q.w.e.e.q.e.e.q.q.t.y.e.e.e.e.t.e.e.t.y.y.g.g.g.y.e.7.O.J J J n n w w n n w n J w 2 ",
"> w J n w n J n n n J ^ O.O.^ J O.^ O.^ O.^ J J O.O.O.^ ^ ^ ^ O.^ ^ O.^ O.O.O.O.O.-.1.-.-.-.O.J ^ ^ ^ ^ J J w n n w e w w n 4 > ",
"= e O.w w e J J J n J J ^ O.J n ^ n T ^ J n w n n n J J J n n n w n n J J J I J J J J J ^ ^ J n J n n n J J n w 4 w w w w ^ n = ",
"= w J w e w n n n n J n J ^ n J J J n n n J w r e w n J J J n n n n n w n n J n n n n J n w n J w e n w n e w w e e e 4 w ^ w 2 ",
"> e n n n n J J J J n r n ^ ^ ^ J n n n n n n n r J ^ ^ ^ ^ ^ J J J J n J J ^ n J J J J ^ -.O.J ^ O.^ J ^ J J ^ J w w w e n e 2 ",
"= 4 w w n n w n J w e w n J n J J e e n w e w e w n J J ^ ^ ^ J n J J ^ ^ ^ J n ^ O.O.-.-.1.O.-.1.O.O.^ ^ ^ J J ^ n n w w w e > ",
"* = > > 2 1 > > 4 2 > > 2 2 2 1 1 2 > 2 > 2 > > 2 > 2 2 1 1 2 2 2 2 2 1 1 2 2 2 1 1 1 4 6 4 1 1 4 4 1 1 1 2 2 2 > 2 2 2 2 > = = "
};
